<svg width="1920" height="1080" viewBox="0 0 1920 1080" fill="none" xmlns="http://www.w3.org/2000/svg">
<g clip-path="url(#clip0_307_719)">
<rect width="1920" height="1080" fill="white"/>
<rect width="1920" height="1080" fill="#0071DC"/>
<mask id="mask0_307_719" style="mask-type:alpha" maskUnits="userSpaceOnUse" x="0" y="0" width="1920" height="1080">
<rect width="1920" height="1080" fill="#2C72D5"/>
</mask>
<g mask="url(#mask0_307_719)">
<path d="M1919.36 361.284C1947.32 361.284 1970.34 346.726 1973.44 327.917L2001.05 15.2708C2001.05 -15.6312 1964.9 -41 1919.45 -41C1874.05 -41 1837.94 -15.6314 1837.94 15.2763L1865.52 327.917C1868.56 346.72 1891.57 361.284 1919.46 361.284H1919.36ZM1750.64 458.938C1764.67 434.719 1763.61 407.498 1748.83 395.405L1492.24 215.141C1465.56 199.668 1425.56 218.293 1402.86 257.723C1380.08 297.104 1384.11 341.086 1410.72 356.565L1694.84 489.054C1712.6 495.647 1736.82 482.957 1750.73 458.754L1750.64 458.938ZM2088.23 458.771C2102.23 482.974 2126.33 495.669 2144.11 489.07L2428.23 356.582C2455 341.109 2458.81 297.121 2436.24 257.74C2413.42 218.349 2373.35 199.685 2346.74 215.158L2090.14 395.422C2075.47 407.498 2074.38 434.741 2088.32 458.955L2088.23 458.771ZM1919.36 751.827C1947.32 751.827 1970.34 766.263 1973.44 785.089L2001.05 1097.69C2001.05 1128.69 1964.9 1154 1919.45 1154C1874.05 1154 1837.94 1128.69 1837.94 1097.69L1865.52 785.089C1868.56 766.263 1891.57 751.827 1919.46 751.827H1919.36ZM2088.23 654.151C2102.23 629.881 2126.33 617.297 2144.11 623.969L2428.23 756.368C2455 771.858 2458.81 815.885 2436.24 855.299C2413.42 894.562 2373.35 913.276 2346.74 897.825L2090.14 717.729C2075.47 705.558 2074.38 678.298 2088.32 654.101H2088.21M1750.64 654.118C1764.67 678.298 1763.61 705.558 1748.83 717.751L1492.24 897.842C1465.56 913.293 1425.56 894.579 1402.86 855.316C1380.08 815.901 1384.11 771.874 1410.72 756.384L1694.84 623.985C1712.6 617.314 1736.82 629.898 1750.73 654.173H1750.64" fill="#FFC220"/>
</g>
<rect y="1060" width="1920" height="20" fill="#FFC220"/>
</g>
<defs>
<clipPath id="clip0_307_719">
<rect width="1920" height="1080" fill="white"/>
</clipPath>
</defs>
</svg>
