<svg width="1920" height="1080" viewBox="0 0 1920 1080" fill="none" xmlns="http://www.w3.org/2000/svg">
<g clip-path="url(#clip0_307_719)">
<rect width="1920" height="1080" fill="white"/>
<rect width="1920" height="1080" fill="#0071DC"/>
<mask id="mask0_307_719" style="mask-type:alpha" maskUnits="userSpaceOnUse" x="0" y="0" width="1920" height="1080">
<rect width="1920" height="1080" fill="#2C72D5"/>
</mask>
<g mask="url(#mask0_307_719)">
<path d="M1919.36 361.284C1947.32 361.284 1970.34 346.726 1973.44 327.917L2001.05 15.2708C2001.05 -15.6312 1964.9 -41 1919.45 -41C1874.05 -41 1837.94 -15.6314 1837.94 15.2763L1865.52 327.917C1868.56 346.72 1891.57 361.284 1919.46 361.284H1919.36ZM1750.64 458.938C1764.67 434.719 1763.61 407.498 1748.83 395.405L1492.24 215.141C1465.56 199.668 1425.56 218.293 1402.86 257.723C1380.08 297.104 1384.11 341.086 1410.72 356.565L1694.84 489.054C1712.6 495.647 1736.82 482.957 1750.73 458.754L1750.64 458.938ZM2088.23 458.771C2102.23 482.974 2126.33 495.669 2144.11 489.07L2428.23 356.582C2455 341.109 2458.81 297.121 2436.24 257.74C2413.42 218.349 2373.35 199.685 2346.74 215.158L2090.14 395.422C2075.47 407.498 2074.38 434.741 2088.32 458.955L2088.23 458.771ZM1919.36 751.827C1947.32 751.827 1970.34 766.263 1973.44 785.089L2001.05 1097.69C2001.05 1128.69 1964.9 1154 1919.45 1154C1874.05 1154 1837.94 1128.69 1837.94 1097.69L1865.52 785.089C1868.56 766.263 1891.57 751.827 1919.46 751.827H1919.36ZM2088.23 654.151C2102.23 629.881 2126.33 617.297 2144.11 623.969L2428.23 756.368C2455 771.858 2458.81 815.885 2436.24 855.299C2413.42 894.562 2373.35 913.276 2346.74 897.825L2090.14 717.729C2075.47 705.558 2074.38 678.298 2088.32 654.101H2088.21M1750.64 654.118C1764.67 678.298 1763.61 705.558 1748.83 717.751L1492.24 897.842C1465.56 913.293 1425.56 894.579 1402.86 855.316C1380.08 815.901 1384.11 771.874 1410.72 756.384L1694.84 623.985C1712.6 617.314 1736.82 629.898 1750.73 654.173H1750.64" fill="#FFC220"/>
</g>
<path d="M79.8516 702V663.451H88.0254V702H79.8516ZM130.636 671.968C133.976 671.968 136.498 672.829 138.203 674.552C139.926 676.257 140.787 678.999 140.787 682.778V702H132.719V684.782C132.719 682.673 132.358 681.082 131.638 680.01C130.917 678.938 129.801 678.401 128.289 678.401C126.162 678.401 124.65 679.166 123.754 680.695C122.858 682.207 122.409 684.378 122.409 687.208V702H114.367V684.782C114.367 683.376 114.209 682.198 113.893 681.249C113.576 680.3 113.093 679.588 112.442 679.113C111.792 678.639 110.957 678.401 109.938 678.401C108.443 678.401 107.266 678.779 106.404 679.535C105.561 680.273 104.954 681.372 104.585 682.831C104.233 684.272 104.058 686.039 104.058 688.131V702H96.0157V672.521H102.159L103.24 676.292H103.689C104.286 675.272 105.033 674.446 105.93 673.813C106.844 673.181 107.846 672.715 108.936 672.416C110.025 672.117 111.133 671.968 112.258 671.968C114.42 671.968 116.248 672.319 117.742 673.022C119.254 673.726 120.414 674.815 121.223 676.292H121.935C122.814 674.78 124.053 673.682 125.652 672.996C127.27 672.311 128.931 671.968 130.636 671.968ZM164.387 671.968C167.709 671.968 170.39 673.26 172.429 675.844C174.486 678.428 175.514 682.216 175.514 687.208C175.514 690.548 175.03 693.36 174.064 695.646C173.097 697.913 171.761 699.627 170.056 700.787C168.351 701.947 166.391 702.527 164.176 702.527C162.752 702.527 161.53 702.352 160.511 702C159.491 701.631 158.621 701.165 157.901 700.603C157.18 700.022 156.556 699.407 156.028 698.757H155.607C155.747 699.46 155.853 700.181 155.923 700.919C155.993 701.657 156.028 702.378 156.028 703.081V714.973H147.986V672.521H154.526L155.659 676.345H156.028C156.556 675.554 157.197 674.824 157.953 674.156C158.709 673.488 159.614 672.961 160.669 672.574C161.741 672.17 162.981 671.968 164.387 671.968ZM161.803 678.401C160.397 678.401 159.28 678.691 158.454 679.271C157.628 679.852 157.022 680.722 156.635 681.882C156.266 683.042 156.064 684.51 156.028 686.285V687.155C156.028 689.054 156.204 690.662 156.556 691.98C156.925 693.299 157.531 694.301 158.375 694.986C159.236 695.672 160.414 696.015 161.908 696.015C163.139 696.015 164.15 695.672 164.941 694.986C165.732 694.301 166.32 693.299 166.707 691.98C167.111 690.645 167.314 689.019 167.314 687.103C167.314 684.22 166.865 682.049 165.969 680.59C165.072 679.131 163.684 678.401 161.803 678.401ZM197.531 671.968C197.936 671.968 198.402 671.994 198.929 672.047C199.474 672.082 199.913 672.135 200.247 672.205L199.641 679.746C199.377 679.658 198.999 679.597 198.507 679.562C198.032 679.509 197.619 679.482 197.268 679.482C196.231 679.482 195.22 679.614 194.236 679.878C193.269 680.142 192.399 680.572 191.625 681.17C190.852 681.75 190.237 682.523 189.78 683.49C189.34 684.439 189.12 685.608 189.12 686.997V702H181.078V672.521H187.169L188.356 677.479H188.751C189.331 676.477 190.052 675.562 190.913 674.736C191.792 673.893 192.785 673.225 193.893 672.732C195.018 672.223 196.231 671.968 197.531 671.968ZM231.309 687.208C231.309 689.669 230.975 691.849 230.307 693.747C229.657 695.646 228.699 697.254 227.433 698.572C226.185 699.873 224.673 700.857 222.898 701.525C221.14 702.193 219.154 702.527 216.939 702.527C214.865 702.527 212.957 702.193 211.217 701.525C209.494 700.857 207.992 699.873 206.708 698.572C205.443 697.254 204.458 695.646 203.755 693.747C203.07 691.849 202.727 689.669 202.727 687.208C202.727 683.938 203.307 681.17 204.467 678.902C205.627 676.635 207.28 674.912 209.424 673.734C211.569 672.557 214.126 671.968 217.097 671.968C219.857 671.968 222.3 672.557 224.427 673.734C226.572 674.912 228.25 676.635 229.463 678.902C230.694 681.17 231.309 683.938 231.309 687.208ZM210.927 687.208C210.927 689.142 211.138 690.768 211.56 692.086C211.982 693.404 212.641 694.397 213.537 695.065C214.434 695.733 215.603 696.067 217.044 696.067C218.468 696.067 219.619 695.733 220.498 695.065C221.395 694.397 222.045 693.404 222.45 692.086C222.871 690.768 223.082 689.142 223.082 687.208C223.082 685.257 222.871 683.64 222.45 682.356C222.045 681.056 221.395 680.08 220.498 679.43C219.602 678.779 218.433 678.454 216.992 678.454C214.865 678.454 213.318 679.184 212.351 680.643C211.402 682.102 210.927 684.29 210.927 687.208ZM243.887 702L232.655 672.521H241.066L246.761 689.317C247.078 690.302 247.324 691.339 247.499 692.429C247.693 693.519 247.825 694.494 247.895 695.355H248.106C248.159 694.424 248.282 693.431 248.475 692.376C248.686 691.321 248.958 690.302 249.292 689.317L254.961 672.521H263.372L252.14 702H243.887ZM274.58 672.521V702H266.538V672.521H274.58ZM270.572 660.973C271.767 660.973 272.795 661.254 273.657 661.816C274.518 662.361 274.949 663.39 274.949 664.901C274.949 666.396 274.518 667.433 273.657 668.013C272.795 668.575 271.767 668.856 270.572 668.856C269.359 668.856 268.322 668.575 267.46 668.013C266.617 667.433 266.195 666.396 266.195 664.901C266.195 663.39 266.617 662.361 267.46 661.816C268.322 661.254 269.359 660.973 270.572 660.973ZM298.707 671.968C301.853 671.968 304.384 672.829 306.3 674.552C308.216 676.257 309.174 678.999 309.174 682.778V702H301.132V684.782C301.132 682.673 300.746 681.082 299.972 680.01C299.216 678.938 298.021 678.401 296.386 678.401C293.925 678.401 292.247 679.236 291.35 680.906C290.454 682.576 290.005 684.984 290.005 688.131V702H281.963V672.521H288.107L289.188 676.292H289.636C290.269 675.272 291.051 674.446 291.983 673.813C292.932 673.181 293.978 672.715 295.121 672.416C296.281 672.117 297.476 671.968 298.707 671.968ZM324.996 714.973C320.882 714.973 317.736 714.252 315.556 712.811C313.394 711.387 312.313 709.383 312.313 706.799C312.313 705.023 312.867 703.538 313.974 702.343C315.082 701.147 316.708 700.295 318.852 699.785C318.026 699.434 317.305 698.862 316.69 698.071C316.075 697.263 315.767 696.41 315.767 695.514C315.767 694.389 316.092 693.457 316.743 692.719C317.393 691.963 318.334 691.225 319.564 690.504C318.017 689.836 316.787 688.764 315.873 687.287C314.976 685.811 314.528 684.07 314.528 682.066C314.528 679.922 314.994 678.103 315.925 676.608C316.875 675.097 318.246 673.945 320.039 673.154C321.849 672.363 324.047 671.968 326.631 671.968C327.175 671.968 327.808 672.003 328.529 672.073C329.25 672.144 329.909 672.223 330.506 672.311C331.122 672.398 331.535 672.469 331.746 672.521H342.029V676.608L337.415 677.795C337.837 678.445 338.153 679.14 338.364 679.878C338.575 680.616 338.68 681.398 338.68 682.225C338.68 685.389 337.573 687.858 335.358 689.634C333.161 691.392 330.102 692.271 326.182 692.271C325.251 692.218 324.372 692.147 323.546 692.06C323.141 692.376 322.834 692.71 322.623 693.062C322.412 693.413 322.306 693.782 322.306 694.169C322.306 694.556 322.464 694.881 322.781 695.145C323.115 695.391 323.607 695.584 324.257 695.725C324.925 695.848 325.752 695.909 326.736 695.909H331.746C334.98 695.909 337.441 696.604 339.129 697.992C340.834 699.381 341.686 701.42 341.686 704.109C341.686 707.555 340.245 710.227 337.362 712.125C334.497 714.023 330.375 714.973 324.996 714.973ZM325.339 709.726C327.255 709.726 328.898 709.541 330.269 709.172C331.658 708.82 332.721 708.311 333.46 707.643C334.198 706.992 334.567 706.21 334.567 705.296C334.567 704.558 334.347 703.969 333.908 703.529C333.486 703.107 332.836 702.809 331.957 702.633C331.095 702.457 329.988 702.369 328.634 702.369H324.468C323.484 702.369 322.596 702.527 321.805 702.844C321.032 703.16 320.417 703.6 319.96 704.162C319.503 704.742 319.274 705.41 319.274 706.166C319.274 707.273 319.801 708.144 320.856 708.776C321.928 709.409 323.423 709.726 325.339 709.726ZM326.631 687.366C328.142 687.366 329.25 686.9 329.953 685.969C330.656 685.037 331.007 683.771 331.007 682.172C331.007 680.396 330.638 679.069 329.9 678.19C329.179 677.294 328.089 676.846 326.631 676.846C325.154 676.846 324.047 677.294 323.308 678.19C322.57 679.069 322.201 680.396 322.201 682.172C322.201 683.771 322.561 685.037 323.282 685.969C324.02 686.9 325.136 687.366 326.631 687.366ZM371.193 696.12C372.072 696.12 372.925 696.032 373.751 695.856C374.595 695.681 375.43 695.461 376.256 695.197V701.183C375.394 701.569 374.322 701.886 373.039 702.132C371.773 702.396 370.385 702.527 368.873 702.527C367.115 702.527 365.533 702.246 364.127 701.684C362.738 701.104 361.639 700.11 360.831 698.704C360.04 697.28 359.644 695.303 359.644 692.771V678.56H355.795V675.158L360.224 672.469L362.545 666.246H367.686V672.521H375.939V678.56H367.686V692.771C367.686 693.896 368.003 694.74 368.636 695.303C369.286 695.848 370.138 696.12 371.193 696.12ZM389.203 660.973V669.331C389.203 670.79 389.15 672.179 389.045 673.497C388.957 674.815 388.887 675.747 388.834 676.292H389.256C389.889 675.272 390.636 674.446 391.497 673.813C392.376 673.181 393.343 672.715 394.397 672.416C395.452 672.117 396.586 671.968 397.799 671.968C399.926 671.968 401.78 672.346 403.362 673.102C404.944 673.84 406.175 675.009 407.054 676.608C407.932 678.19 408.372 680.247 408.372 682.778V702H400.33V684.782C400.33 682.673 399.943 681.082 399.17 680.01C398.396 678.938 397.201 678.401 395.584 678.401C393.967 678.401 392.692 678.779 391.761 679.535C390.829 680.273 390.17 681.372 389.783 682.831C389.396 684.272 389.203 686.039 389.203 688.131V702H381.161V660.973H389.203ZM427.727 671.968C430.451 671.968 432.798 672.495 434.767 673.55C436.735 674.587 438.256 676.099 439.328 678.085C440.4 680.071 440.936 682.497 440.936 685.362V689.265H421.926C422.014 691.532 422.69 693.316 423.956 694.617C425.239 695.9 427.015 696.542 429.282 696.542C431.163 696.542 432.886 696.349 434.45 695.962C436.015 695.575 437.623 694.995 439.275 694.222V700.444C437.816 701.165 436.287 701.692 434.687 702.026C433.105 702.36 431.181 702.527 428.913 702.527C425.96 702.527 423.341 701.982 421.056 700.893C418.788 699.803 417.004 698.142 415.703 695.909C414.42 693.677 413.778 690.864 413.778 687.472C413.778 684.026 414.358 681.161 415.519 678.876C416.696 676.573 418.331 674.851 420.423 673.708C422.515 672.548 424.949 671.968 427.727 671.968ZM427.779 677.689C426.215 677.689 424.914 678.19 423.877 679.192C422.857 680.194 422.269 681.768 422.11 683.912H433.395C433.378 682.717 433.158 681.653 432.736 680.722C432.332 679.79 431.717 679.052 430.891 678.507C430.082 677.962 429.045 677.689 427.779 677.689ZM472.289 663.451C477.264 663.451 480.894 664.523 483.179 666.668C485.464 668.795 486.607 671.73 486.607 675.475C486.607 677.162 486.352 678.779 485.842 680.326C485.332 681.855 484.497 683.218 483.337 684.413C482.194 685.608 480.665 686.558 478.749 687.261C476.833 687.946 474.469 688.289 471.656 688.289H468.15V702H459.976V663.451H472.289ZM471.867 670.148H468.15V681.592H470.839C472.368 681.592 473.695 681.39 474.82 680.985C475.945 680.581 476.816 679.948 477.431 679.087C478.046 678.226 478.354 677.118 478.354 675.765C478.354 673.866 477.826 672.46 476.772 671.546C475.717 670.614 474.082 670.148 471.867 670.148ZM508.624 671.968C509.029 671.968 509.494 671.994 510.022 672.047C510.567 672.082 511.006 672.135 511.34 672.205L510.734 679.746C510.47 679.658 510.092 679.597 509.6 679.562C509.125 679.509 508.712 679.482 508.361 679.482C507.323 679.482 506.313 679.614 505.328 679.878C504.362 680.142 503.491 680.572 502.718 681.17C501.945 681.75 501.329 682.523 500.872 683.49C500.433 684.439 500.213 685.608 500.213 686.997V702H492.171V672.521H498.262L499.448 677.479H499.844C500.424 676.477 501.145 675.562 502.006 674.736C502.885 673.893 503.878 673.225 504.986 672.732C506.111 672.223 507.323 671.968 508.624 671.968ZM542.402 687.208C542.402 689.669 542.068 691.849 541.4 693.747C540.749 695.646 539.791 697.254 538.526 698.572C537.278 699.873 535.766 700.857 533.991 701.525C532.233 702.193 530.246 702.527 528.032 702.527C525.957 702.527 524.05 702.193 522.31 701.525C520.587 700.857 519.084 699.873 517.801 698.572C516.535 697.254 515.551 695.646 514.848 693.747C514.162 691.849 513.82 689.669 513.82 687.208C513.82 683.938 514.4 681.17 515.56 678.902C516.72 676.635 518.372 674.912 520.517 673.734C522.661 672.557 525.219 671.968 528.19 671.968C530.949 671.968 533.393 672.557 535.52 673.734C537.664 674.912 539.343 676.635 540.556 678.902C541.786 681.17 542.402 683.938 542.402 687.208ZM522.02 687.208C522.02 689.142 522.231 690.768 522.653 692.086C523.074 693.404 523.734 694.397 524.63 695.065C525.527 695.733 526.696 696.067 528.137 696.067C529.561 696.067 530.712 695.733 531.591 695.065C532.488 694.397 533.138 693.404 533.542 692.086C533.964 690.768 534.175 689.142 534.175 687.208C534.175 685.257 533.964 683.64 533.542 682.356C533.138 681.056 532.488 680.08 531.591 679.43C530.695 678.779 529.526 678.454 528.084 678.454C525.957 678.454 524.41 679.184 523.444 680.643C522.494 682.102 522.02 684.29 522.02 687.208ZM557.3 702.527C554.013 702.527 551.332 701.244 549.258 698.678C547.202 696.094 546.173 692.306 546.173 687.313C546.173 682.269 547.219 678.454 549.311 675.87C551.403 673.269 554.136 671.968 557.511 671.968C558.917 671.968 560.157 672.161 561.229 672.548C562.301 672.935 563.224 673.453 563.997 674.104C564.788 674.754 565.456 675.483 566.001 676.292H566.265C566.16 675.729 566.028 674.903 565.869 673.813C565.729 672.706 565.659 671.572 565.659 670.412V660.973H573.727V702H567.557L566.001 698.177H565.659C565.149 698.985 564.507 699.724 563.734 700.392C562.978 701.042 562.073 701.561 561.018 701.947C559.963 702.334 558.724 702.527 557.3 702.527ZM560.121 696.12C562.319 696.12 563.866 695.47 564.762 694.169C565.676 692.851 566.16 690.873 566.212 688.236V687.366C566.212 684.501 565.773 682.312 564.894 680.801C564.015 679.271 562.38 678.507 559.99 678.507C558.214 678.507 556.826 679.271 555.824 680.801C554.822 682.33 554.321 684.536 554.321 687.419C554.321 690.302 554.822 692.473 555.824 693.932C556.843 695.391 558.276 696.12 560.121 696.12ZM608.111 672.521V702H601.941L600.86 698.229H600.438C599.805 699.231 599.014 700.049 598.065 700.682C597.116 701.314 596.07 701.78 594.927 702.079C593.785 702.378 592.598 702.527 591.368 702.527C589.258 702.527 587.421 702.158 585.857 701.42C584.292 700.664 583.071 699.495 582.192 697.913C581.331 696.331 580.9 694.274 580.9 691.743V672.521H588.942V689.739C588.942 691.849 589.32 693.439 590.076 694.512C590.831 695.584 592.036 696.12 593.688 696.12C595.323 696.12 596.606 695.751 597.538 695.013C598.469 694.257 599.12 693.158 599.489 691.717C599.875 690.258 600.069 688.482 600.069 686.391V672.521H608.111ZM627.439 702.527C624.521 702.527 622.034 702 619.977 700.945C617.92 699.873 616.356 698.221 615.284 695.988C614.211 693.756 613.675 690.899 613.675 687.419C613.675 683.815 614.282 680.88 615.495 678.612C616.725 676.327 618.421 674.648 620.583 673.576C622.763 672.504 625.286 671.968 628.151 671.968C630.19 671.968 631.948 672.17 633.424 672.574C634.918 672.961 636.219 673.427 637.327 673.972L634.954 680.194C633.688 679.685 632.51 679.271 631.42 678.955C630.331 678.621 629.241 678.454 628.151 678.454C626.745 678.454 625.576 678.788 624.644 679.456C623.712 680.106 623.018 681.091 622.561 682.409C622.104 683.728 621.875 685.38 621.875 687.366C621.875 689.317 622.122 690.935 622.614 692.218C623.106 693.501 623.818 694.459 624.75 695.092C625.681 695.707 626.815 696.015 628.151 696.015C629.821 696.015 631.306 695.795 632.607 695.355C633.908 694.898 635.173 694.266 636.404 693.457V700.339C635.173 701.112 633.881 701.666 632.528 702C631.192 702.352 629.496 702.527 627.439 702.527ZM654.598 696.12C655.477 696.12 656.33 696.032 657.156 695.856C658 695.681 658.835 695.461 659.661 695.197V701.183C658.799 701.569 657.727 701.886 656.444 702.132C655.178 702.396 653.79 702.527 652.278 702.527C650.52 702.527 648.938 702.246 647.532 701.684C646.143 701.104 645.045 700.11 644.236 698.704C643.445 697.28 643.049 695.303 643.049 692.771V678.56H639.2V675.158L643.63 672.469L645.95 666.246H651.091V672.521H659.344V678.56H651.091V692.771C651.091 693.896 651.408 694.74 652.041 695.303C652.691 695.848 653.544 696.12 654.598 696.12ZM700.901 691.295C700.901 693.58 700.347 695.566 699.24 697.254C698.133 698.941 696.515 700.242 694.388 701.156C692.279 702.07 689.713 702.527 686.689 702.527C685.353 702.527 684.044 702.439 682.76 702.264C681.495 702.088 680.273 701.833 679.095 701.499C677.935 701.147 676.828 700.717 675.773 700.207V692.613C677.601 693.422 679.5 694.151 681.469 694.802C683.437 695.452 685.388 695.777 687.322 695.777C688.658 695.777 689.73 695.602 690.539 695.25C691.365 694.898 691.963 694.415 692.332 693.8C692.701 693.185 692.885 692.481 692.885 691.69C692.885 690.724 692.56 689.897 691.91 689.212C691.26 688.526 690.363 687.885 689.22 687.287C688.095 686.689 686.821 686.048 685.397 685.362C684.501 684.94 683.525 684.431 682.47 683.833C681.416 683.218 680.414 682.471 679.465 681.592C678.515 680.713 677.733 679.649 677.118 678.401C676.52 677.136 676.221 675.624 676.221 673.866C676.221 671.563 676.749 669.595 677.803 667.96C678.858 666.325 680.361 665.077 682.312 664.216C684.281 663.337 686.601 662.897 689.273 662.897C691.277 662.897 693.184 663.135 694.995 663.609C696.823 664.066 698.73 664.734 700.717 665.613L698.08 671.968C696.304 671.247 694.714 670.693 693.307 670.307C691.901 669.902 690.469 669.7 689.01 669.7C687.99 669.7 687.12 669.867 686.399 670.201C685.678 670.518 685.134 670.975 684.764 671.572C684.395 672.152 684.211 672.829 684.211 673.603C684.211 674.517 684.474 675.29 685.002 675.923C685.547 676.538 686.355 677.136 687.427 677.716C688.517 678.296 689.871 678.973 691.488 679.746C693.457 680.678 695.135 681.653 696.524 682.673C697.93 683.675 699.011 684.861 699.767 686.232C700.523 687.586 700.901 689.273 700.901 691.295ZM718.331 671.968C721.055 671.968 723.402 672.495 725.371 673.55C727.34 674.587 728.86 676.099 729.932 678.085C731.005 680.071 731.541 682.497 731.541 685.362V689.265H712.53C712.618 691.532 713.295 693.316 714.56 694.617C715.844 695.9 717.619 696.542 719.887 696.542C721.767 696.542 723.49 696.349 725.055 695.962C726.619 695.575 728.227 694.995 729.88 694.222V700.444C728.421 701.165 726.891 701.692 725.292 702.026C723.71 702.36 721.785 702.527 719.517 702.527C716.564 702.527 713.945 701.982 711.66 700.893C709.392 699.803 707.608 698.142 706.307 695.909C705.024 693.677 704.383 690.864 704.383 687.472C704.383 684.026 704.963 681.161 706.123 678.876C707.301 676.573 708.935 674.851 711.027 673.708C713.119 672.548 715.554 671.968 718.331 671.968ZM718.384 677.689C716.819 677.689 715.518 678.19 714.481 679.192C713.462 680.194 712.873 681.768 712.715 683.912H724C723.982 682.717 723.763 681.653 723.341 680.722C722.936 679.79 722.321 679.052 721.495 678.507C720.686 677.962 719.649 677.689 718.384 677.689ZM749.076 671.915C753.031 671.915 756.063 672.776 758.173 674.499C760.282 676.222 761.337 678.841 761.337 682.356V702H755.721L754.165 697.992H753.954C753.11 699.047 752.249 699.908 751.37 700.576C750.491 701.244 749.48 701.736 748.338 702.053C747.195 702.369 745.807 702.527 744.172 702.527C742.432 702.527 740.867 702.193 739.478 701.525C738.107 700.857 737.026 699.838 736.235 698.467C735.444 697.078 735.049 695.32 735.049 693.193C735.049 690.064 736.147 687.762 738.345 686.285C740.542 684.791 743.838 683.965 748.232 683.807L753.348 683.648V682.356C753.348 680.81 752.943 679.676 752.135 678.955C751.326 678.234 750.201 677.874 748.76 677.874C747.336 677.874 745.938 678.076 744.567 678.48C743.196 678.885 741.825 679.395 740.454 680.01L737.791 674.578C739.355 673.752 741.104 673.102 743.038 672.627C744.989 672.152 747.002 671.915 749.076 671.915ZM753.348 688.342L750.236 688.447C747.635 688.518 745.824 688.983 744.805 689.845C743.803 690.706 743.302 691.84 743.302 693.246C743.302 694.477 743.662 695.355 744.383 695.883C745.103 696.393 746.044 696.647 747.204 696.647C748.927 696.647 750.377 696.138 751.555 695.118C752.75 694.099 753.348 692.648 753.348 690.768V688.342ZM785.016 671.968C785.42 671.968 785.886 671.994 786.413 672.047C786.958 672.082 787.397 672.135 787.731 672.205L787.125 679.746C786.861 679.658 786.483 679.597 785.991 679.562C785.517 679.509 785.104 679.482 784.752 679.482C783.715 679.482 782.704 679.614 781.72 679.878C780.753 680.142 779.883 680.572 779.109 681.17C778.336 681.75 777.721 682.523 777.264 683.49C776.824 684.439 776.604 685.608 776.604 686.997V702H768.562V672.521H774.653L775.84 677.479H776.235C776.815 676.477 777.536 675.562 778.397 674.736C779.276 673.893 780.27 673.225 781.377 672.732C782.502 672.223 783.715 671.968 785.016 671.968ZM803.975 702.527C801.057 702.527 798.569 702 796.513 700.945C794.456 699.873 792.892 698.221 791.819 695.988C790.747 693.756 790.211 690.899 790.211 687.419C790.211 683.815 790.817 680.88 792.03 678.612C793.261 676.327 794.957 674.648 797.119 673.576C799.299 672.504 801.821 671.968 804.687 671.968C806.726 671.968 808.483 672.17 809.96 672.574C811.454 672.961 812.755 673.427 813.862 673.972L811.489 680.194C810.224 679.685 809.046 679.271 807.956 678.955C806.866 678.621 805.776 678.454 804.687 678.454C803.28 678.454 802.111 678.788 801.18 679.456C800.248 680.106 799.554 681.091 799.097 682.409C798.64 683.728 798.411 685.38 798.411 687.366C798.411 689.317 798.657 690.935 799.149 692.218C799.642 693.501 800.354 694.459 801.285 695.092C802.217 695.707 803.351 696.015 804.687 696.015C806.357 696.015 807.842 695.795 809.143 695.355C810.443 694.898 811.709 694.266 812.94 693.457V700.339C811.709 701.112 810.417 701.666 809.064 702C807.728 702.352 806.031 702.527 803.975 702.527ZM826.757 660.973V669.331C826.757 670.79 826.704 672.179 826.599 673.497C826.511 674.815 826.441 675.747 826.388 676.292H826.81C827.443 675.272 828.19 674.446 829.051 673.813C829.93 673.181 830.897 672.715 831.951 672.416C833.006 672.117 834.14 671.968 835.353 671.968C837.48 671.968 839.334 672.346 840.916 673.102C842.498 673.84 843.729 675.009 844.608 676.608C845.487 678.19 845.926 680.247 845.926 682.778V702H837.884V684.782C837.884 682.673 837.497 681.082 836.724 680.01C835.95 678.938 834.755 678.401 833.138 678.401C831.521 678.401 830.246 678.779 829.315 679.535C828.383 680.273 827.724 681.372 827.337 682.831C826.95 684.272 826.757 686.039 826.757 688.131V702H818.715V660.973H826.757ZM878.597 662.897C880.671 662.897 882.517 663.223 884.134 663.873C885.751 664.523 887.026 665.473 887.957 666.721C888.907 667.969 889.381 669.489 889.381 671.282C889.381 673.761 888.643 675.844 887.166 677.531C885.707 679.219 883.879 680.695 881.682 681.961L889.17 689.265C889.909 688.052 890.533 686.769 891.042 685.415C891.57 684.062 892.027 682.699 892.413 681.328H900.798C900.253 683.35 899.453 685.512 898.399 687.814C897.362 690.1 896.034 692.253 894.417 694.274L902.354 702H892.413L889.381 699.021C888.344 699.741 887.228 700.365 886.033 700.893C884.855 701.42 883.589 701.824 882.236 702.105C880.9 702.387 879.485 702.527 877.991 702.527C875.073 702.527 872.568 702.07 870.476 701.156C868.384 700.242 866.784 698.968 865.677 697.333C864.57 695.681 864.016 693.765 864.016 691.585C864.016 689.757 864.297 688.192 864.86 686.892C865.422 685.573 866.231 684.422 867.285 683.438C868.34 682.436 869.606 681.513 871.082 680.669C870.151 679.579 869.404 678.56 868.841 677.61C868.296 676.661 867.901 675.721 867.655 674.789C867.426 673.84 867.312 672.847 867.312 671.81C867.312 669.981 867.786 668.408 868.736 667.09C869.702 665.754 871.03 664.726 872.717 664.005C874.422 663.267 876.382 662.897 878.597 662.897ZM875.776 685.468C875.108 685.978 874.519 686.505 874.009 687.05C873.517 687.595 873.139 688.175 872.875 688.79C872.612 689.405 872.48 690.082 872.48 690.82C872.48 692.367 873.06 693.58 874.22 694.459C875.38 695.338 876.822 695.777 878.544 695.777C879.704 695.777 880.785 695.637 881.787 695.355C882.789 695.074 883.703 694.679 884.53 694.169L875.776 685.468ZM878.544 669.12C877.648 669.12 876.786 669.349 875.96 669.806C875.152 670.263 874.747 671.115 874.747 672.363C874.747 673.242 874.976 674.104 875.433 674.947C875.89 675.773 876.496 676.617 877.252 677.479C878.764 676.652 879.924 675.826 880.733 675C881.541 674.156 881.946 673.198 881.946 672.126C881.946 671.054 881.576 670.289 880.838 669.832C880.117 669.357 879.353 669.12 878.544 669.12ZM930.305 663.451C933.803 663.451 936.686 663.873 938.954 664.717C941.239 665.561 942.935 666.835 944.042 668.54C945.15 670.245 945.704 672.398 945.704 675C945.704 676.758 945.37 678.296 944.702 679.614C944.034 680.933 943.155 682.049 942.065 682.963C940.975 683.877 939.797 684.624 938.532 685.204L949.87 702H940.799L931.597 687.208H927.247V702H919.073V663.451H930.305ZM929.725 670.148H927.247V680.563H929.883C932.59 680.563 934.524 680.115 935.684 679.219C936.862 678.305 937.451 676.969 937.451 675.211C937.451 673.383 936.818 672.082 935.552 671.309C934.304 670.535 932.362 670.148 929.725 670.148ZM965.164 671.968C967.888 671.968 970.235 672.495 972.204 673.55C974.172 674.587 975.693 676.099 976.765 678.085C977.837 680.071 978.374 682.497 978.374 685.362V689.265H959.363C959.451 691.532 960.128 693.316 961.393 694.617C962.676 695.9 964.452 696.542 966.719 696.542C968.6 696.542 970.323 696.349 971.887 695.962C973.452 695.575 975.06 694.995 976.712 694.222V700.444C975.253 701.165 973.724 701.692 972.125 702.026C970.543 702.36 968.618 702.527 966.35 702.527C963.397 702.527 960.778 701.982 958.493 700.893C956.225 699.803 954.441 698.142 953.14 695.909C951.857 693.677 951.215 690.864 951.215 687.472C951.215 684.026 951.795 681.161 952.956 678.876C954.133 676.573 955.768 674.851 957.86 673.708C959.952 672.548 962.386 671.968 965.164 671.968ZM965.216 677.689C963.652 677.689 962.351 678.19 961.314 679.192C960.294 680.194 959.706 681.768 959.547 683.912H970.833C970.815 682.717 970.595 681.653 970.173 680.722C969.769 679.79 969.154 679.052 968.328 678.507C967.519 677.962 966.482 677.689 965.216 677.689ZM990.846 702L979.614 672.521H988.025L993.72 689.317C994.037 690.302 994.283 691.339 994.459 692.429C994.652 693.519 994.784 694.494 994.854 695.355H995.065C995.118 694.424 995.241 693.431 995.434 692.376C995.645 691.321 995.918 690.302 996.252 689.317L1001.92 672.521H1010.33L999.099 702H990.846ZM1021.54 672.521V702H1013.5V672.521H1021.54ZM1017.53 660.973C1018.73 660.973 1019.75 661.254 1020.62 661.816C1021.48 662.361 1021.91 663.39 1021.91 664.901C1021.91 666.396 1021.48 667.433 1020.62 668.013C1019.75 668.575 1018.73 668.856 1017.53 668.856C1016.32 668.856 1015.28 668.575 1014.42 668.013C1013.58 667.433 1013.15 666.396 1013.15 664.901C1013.15 663.39 1013.58 662.361 1014.42 661.816C1015.28 661.254 1016.32 660.973 1017.53 660.973ZM1041.08 671.968C1043.8 671.968 1046.15 672.495 1048.12 673.55C1050.09 674.587 1051.61 676.099 1052.68 678.085C1053.75 680.071 1054.29 682.497 1054.29 685.362V689.265H1035.28C1035.37 691.532 1036.04 693.316 1037.31 694.617C1038.59 695.9 1040.37 696.542 1042.63 696.542C1044.51 696.542 1046.24 696.349 1047.8 695.962C1049.37 695.575 1050.97 694.995 1052.63 694.222V700.444C1051.17 701.165 1049.64 701.692 1048.04 702.026C1046.46 702.36 1044.53 702.527 1042.26 702.527C1039.31 702.527 1036.69 701.982 1034.41 700.893C1032.14 699.803 1030.36 698.142 1029.05 695.909C1027.77 693.677 1027.13 690.864 1027.13 687.472C1027.13 684.026 1027.71 681.161 1028.87 678.876C1030.05 676.573 1031.68 674.851 1033.77 673.708C1035.87 672.548 1038.3 671.968 1041.08 671.968ZM1041.13 677.689C1039.57 677.689 1038.27 678.19 1037.23 679.192C1036.21 680.194 1035.62 681.768 1035.46 683.912H1046.75C1046.73 682.717 1046.51 681.653 1046.09 680.722C1045.68 679.79 1045.07 679.052 1044.24 678.507C1043.43 677.962 1042.4 677.689 1041.13 677.689ZM1083.98 702L1081.71 691.69C1081.59 691.075 1081.39 690.17 1081.1 688.975C1080.82 687.762 1080.52 686.47 1080.18 685.099C1079.87 683.71 1079.57 682.427 1079.29 681.249C1079.02 680.071 1078.83 679.21 1078.7 678.665H1078.47C1078.34 679.21 1078.15 680.071 1077.89 681.249C1077.62 682.427 1077.33 683.71 1076.99 685.099C1076.67 686.487 1076.38 687.797 1076.09 689.027C1075.81 690.24 1075.6 691.163 1075.46 691.796L1073.09 702H1064.44L1056.06 672.521H1064.07L1067.47 685.573C1067.7 686.487 1067.92 687.577 1068.13 688.843C1068.34 690.091 1068.53 691.304 1068.69 692.481C1068.86 693.642 1068.99 694.564 1069.08 695.25H1069.29C1069.33 694.74 1069.4 694.063 1069.5 693.22C1069.63 692.376 1069.76 691.506 1069.9 690.609C1070.06 689.695 1070.2 688.878 1070.32 688.157C1070.46 687.419 1070.57 686.918 1070.64 686.654L1074.28 672.521H1083.13L1086.59 686.654C1086.71 687.164 1086.87 687.973 1087.06 689.08C1087.27 690.188 1087.46 691.33 1087.62 692.508C1087.78 693.668 1087.86 694.582 1087.88 695.25H1088.09C1088.16 694.652 1088.29 693.765 1088.46 692.587C1088.64 691.409 1088.84 690.179 1089.07 688.896C1089.31 687.595 1089.56 686.487 1089.81 685.573L1093.34 672.521H1101.22L1092.73 702H1083.98ZM1140.7 702H1118.5V663.451H1140.7V670.148H1126.67V678.612H1139.72V685.31H1126.67V695.25H1140.7V702ZM1153.09 686.944L1143.6 672.521H1152.72L1158.44 681.908L1164.22 672.521H1173.34L1163.74 686.944L1173.79 702H1164.64L1158.44 691.901L1152.22 702H1143.1L1153.09 686.944ZM1193.59 671.968C1196.91 671.968 1199.59 673.26 1201.63 675.844C1203.69 678.428 1204.72 682.216 1204.72 687.208C1204.72 690.548 1204.23 693.36 1203.27 695.646C1202.3 697.913 1200.97 699.627 1199.26 700.787C1197.55 701.947 1195.59 702.527 1193.38 702.527C1191.96 702.527 1190.73 702.352 1189.72 702C1188.7 701.631 1187.83 701.165 1187.1 700.603C1186.38 700.022 1185.76 699.407 1185.23 698.757H1184.81C1184.95 699.46 1185.06 700.181 1185.13 700.919C1185.2 701.657 1185.23 702.378 1185.23 703.081V714.973H1177.19V672.521H1183.73L1184.86 676.345H1185.23C1185.76 675.554 1186.4 674.824 1187.16 674.156C1187.91 673.488 1188.82 672.961 1189.87 672.574C1190.95 672.17 1192.18 671.968 1193.59 671.968ZM1191.01 678.401C1189.6 678.401 1188.48 678.691 1187.66 679.271C1186.83 679.852 1186.23 680.722 1185.84 681.882C1185.47 683.042 1185.27 684.51 1185.23 686.285V687.155C1185.23 689.054 1185.41 690.662 1185.76 691.98C1186.13 693.299 1186.74 694.301 1187.58 694.986C1188.44 695.672 1189.62 696.015 1191.11 696.015C1192.34 696.015 1193.35 695.672 1194.14 694.986C1194.94 694.301 1195.52 693.299 1195.91 691.98C1196.32 690.645 1196.52 689.019 1196.52 687.103C1196.52 684.22 1196.07 682.049 1195.17 680.59C1194.28 679.131 1192.89 678.401 1191.01 678.401ZM1222.44 671.968C1225.16 671.968 1227.51 672.495 1229.48 673.55C1231.45 674.587 1232.97 676.099 1234.04 678.085C1235.11 680.071 1235.65 682.497 1235.65 685.362V689.265H1216.64C1216.72 691.532 1217.4 693.316 1218.67 694.617C1219.95 695.9 1221.73 696.542 1223.99 696.542C1225.87 696.542 1227.6 696.349 1229.16 695.962C1230.73 695.575 1232.33 694.995 1233.99 694.222V700.444C1232.53 701.165 1231 701.692 1229.4 702.026C1227.82 702.36 1225.89 702.527 1223.62 702.527C1220.67 702.527 1218.05 701.982 1215.77 700.893C1213.5 699.803 1211.72 698.142 1210.41 695.909C1209.13 693.677 1208.49 690.864 1208.49 687.472C1208.49 684.026 1209.07 681.161 1210.23 678.876C1211.41 676.573 1213.04 674.851 1215.13 673.708C1217.23 672.548 1219.66 671.968 1222.44 671.968ZM1222.49 677.689C1220.93 677.689 1219.63 678.19 1218.59 679.192C1217.57 680.194 1216.98 681.768 1216.82 683.912H1228.11C1228.09 682.717 1227.87 681.653 1227.45 680.722C1227.04 679.79 1226.43 679.052 1225.6 678.507C1224.79 677.962 1223.76 677.689 1222.49 677.689ZM1257.56 671.968C1257.96 671.968 1258.43 671.994 1258.96 672.047C1259.5 672.082 1259.94 672.135 1260.28 672.205L1259.67 679.746C1259.41 679.658 1259.03 679.597 1258.54 679.562C1258.06 679.509 1257.65 679.482 1257.3 679.482C1256.26 679.482 1255.25 679.614 1254.26 679.878C1253.3 680.142 1252.43 680.572 1251.65 681.17C1250.88 681.75 1250.27 682.523 1249.81 683.49C1249.37 684.439 1249.15 685.608 1249.15 686.997V702H1241.11V672.521H1247.2L1248.38 677.479H1248.78C1249.36 676.477 1250.08 675.562 1250.94 674.736C1251.82 673.893 1252.81 673.225 1253.92 672.732C1255.05 672.223 1256.26 671.968 1257.56 671.968ZM1272.59 672.521V702H1264.55V672.521H1272.59ZM1268.58 660.973C1269.78 660.973 1270.81 661.254 1271.67 661.816C1272.53 662.361 1272.96 663.39 1272.96 664.901C1272.96 666.396 1272.53 667.433 1271.67 668.013C1270.81 668.575 1269.78 668.856 1268.58 668.856C1267.37 668.856 1266.33 668.575 1265.47 668.013C1264.63 667.433 1264.21 666.396 1264.21 664.901C1264.21 663.39 1264.63 662.361 1265.47 661.816C1266.33 661.254 1267.37 660.973 1268.58 660.973ZM1292.13 671.968C1294.85 671.968 1297.2 672.495 1299.17 673.55C1301.14 674.587 1302.66 676.099 1303.73 678.085C1304.8 680.071 1305.34 682.497 1305.34 685.362V689.265H1286.33C1286.42 691.532 1287.09 693.316 1288.36 694.617C1289.64 695.9 1291.42 696.542 1293.69 696.542C1295.57 696.542 1297.29 696.349 1298.85 695.962C1300.42 695.575 1302.03 694.995 1303.68 694.222V700.444C1302.22 701.165 1300.69 701.692 1299.09 702.026C1297.51 702.36 1295.58 702.527 1293.32 702.527C1290.36 702.527 1287.74 701.982 1285.46 700.893C1283.19 699.803 1281.41 698.142 1280.11 695.909C1278.82 693.677 1278.18 690.864 1278.18 687.472C1278.18 684.026 1278.76 681.161 1279.92 678.876C1281.1 676.573 1282.73 674.851 1284.83 673.708C1286.92 672.548 1289.35 671.968 1292.13 671.968ZM1292.18 677.689C1290.62 677.689 1289.32 678.19 1288.28 679.192C1287.26 680.194 1286.67 681.768 1286.51 683.912H1297.8C1297.78 682.717 1297.56 681.653 1297.14 680.722C1296.73 679.79 1296.12 679.052 1295.29 678.507C1294.48 677.962 1293.45 677.689 1292.18 677.689ZM1327.54 671.968C1330.69 671.968 1333.22 672.829 1335.14 674.552C1337.05 676.257 1338.01 678.999 1338.01 682.778V702H1329.97V684.782C1329.97 682.673 1329.58 681.082 1328.81 680.01C1328.05 678.938 1326.86 678.401 1325.22 678.401C1322.76 678.401 1321.08 679.236 1320.19 680.906C1319.29 682.576 1318.84 684.984 1318.84 688.131V702H1310.8V672.521H1316.94L1318.02 676.292H1318.47C1319.1 675.272 1319.89 674.446 1320.82 673.813C1321.77 673.181 1322.81 672.715 1323.96 672.416C1325.12 672.117 1326.31 671.968 1327.54 671.968ZM1357.18 702.527C1354.26 702.527 1351.77 702 1349.72 700.945C1347.66 699.873 1346.1 698.221 1345.02 695.988C1343.95 693.756 1343.42 690.899 1343.42 687.419C1343.42 683.815 1344.02 680.88 1345.23 678.612C1346.47 676.327 1348.16 674.648 1350.32 673.576C1352.5 672.504 1355.03 671.968 1357.89 671.968C1359.93 671.968 1361.69 672.17 1363.16 672.574C1364.66 672.961 1365.96 673.427 1367.07 673.972L1364.69 680.194C1363.43 679.685 1362.25 679.271 1361.16 678.955C1360.07 678.621 1358.98 678.454 1357.89 678.454C1356.48 678.454 1355.32 678.788 1354.38 679.456C1353.45 680.106 1352.76 681.091 1352.3 682.409C1351.84 683.728 1351.62 685.38 1351.62 687.366C1351.62 689.317 1351.86 690.935 1352.35 692.218C1352.85 693.501 1353.56 694.459 1354.49 695.092C1355.42 695.707 1356.56 696.015 1357.89 696.015C1359.56 696.015 1361.05 695.795 1362.35 695.355C1363.65 694.898 1364.91 694.266 1366.14 693.457V700.339C1364.91 701.112 1363.62 701.666 1362.27 702C1360.93 702.352 1359.24 702.527 1357.18 702.527ZM1384.07 671.968C1386.8 671.968 1389.15 672.495 1391.11 673.55C1393.08 674.587 1394.6 676.099 1395.68 678.085C1396.75 680.071 1397.28 682.497 1397.28 685.362V689.265H1378.27C1378.36 691.532 1379.04 693.316 1380.3 694.617C1381.59 695.9 1383.36 696.542 1385.63 696.542C1387.51 696.542 1389.23 696.349 1390.8 695.962C1392.36 695.575 1393.97 694.995 1395.62 694.222V700.444C1394.16 701.165 1392.64 701.692 1391.04 702.026C1389.45 702.36 1387.53 702.527 1385.26 702.527C1382.31 702.527 1379.69 701.982 1377.4 700.893C1375.14 699.803 1373.35 698.142 1372.05 695.909C1370.77 693.677 1370.13 690.864 1370.13 687.472C1370.13 684.026 1370.71 681.161 1371.87 678.876C1373.04 676.573 1374.68 674.851 1376.77 673.708C1378.86 672.548 1381.3 671.968 1384.07 671.968ZM1384.13 677.689C1382.56 677.689 1381.26 678.19 1380.23 679.192C1379.21 680.194 1378.62 681.768 1378.46 683.912H1389.74C1389.73 682.717 1389.51 681.653 1389.08 680.722C1388.68 679.79 1388.07 679.052 1387.24 678.507C1386.43 677.962 1385.39 677.689 1384.13 677.689Z" fill="#FFC220"/>
<path d="M0 349H348C363.464 349 376 361.536 376 377V377C376 392.464 363.464 405 348 405H0V349Z" fill="#FFC220"/>
<path d="M92.3555 367.726V380.197C92.3555 381.542 92.0698 382.746 91.4985 383.81C90.936 384.873 90.0835 385.717 88.9409 386.341C87.7983 386.956 86.3613 387.264 84.6299 387.264C82.1602 387.264 80.2793 386.618 78.9873 385.326C77.7041 384.025 77.0625 382.298 77.0625 380.145V367.726H80.2266V379.868C80.2266 381.476 80.6045 382.663 81.3604 383.427C82.1162 384.192 83.2456 384.574 84.7485 384.574C85.7856 384.574 86.6294 384.394 87.2798 384.034C87.939 383.665 88.4224 383.128 88.73 382.425C89.0464 381.713 89.2046 380.856 89.2046 379.854V367.726H92.3555ZM111.511 387H107.912L103.061 379.103L98.1826 387H94.7944L101.202 377.007L95.2295 367.726H98.7231L103.206 375.029L107.662 367.726H111.05L105.051 377.099L111.511 387ZM129.335 370.138C128.413 370.138 127.586 370.305 126.857 370.639C126.136 370.973 125.525 371.457 125.024 372.089C124.523 372.713 124.141 373.474 123.877 374.37C123.614 375.258 123.482 376.26 123.482 377.376C123.482 378.87 123.693 380.158 124.115 381.239C124.537 382.311 125.178 383.137 126.04 383.717C126.901 384.289 127.991 384.574 129.309 384.574C130.126 384.574 130.922 384.495 131.695 384.337C132.469 384.179 133.269 383.963 134.095 383.691V386.38C133.312 386.688 132.521 386.912 131.722 387.053C130.922 387.193 129.999 387.264 128.953 387.264C126.984 387.264 125.35 386.855 124.049 386.038C122.757 385.22 121.79 384.069 121.148 382.583C120.516 381.098 120.199 379.358 120.199 377.363C120.199 375.904 120.401 374.568 120.806 373.355C121.21 372.142 121.799 371.096 122.572 370.217C123.346 369.33 124.299 368.648 125.433 368.174C126.576 367.69 127.881 367.449 129.349 367.449C130.315 367.449 131.265 367.559 132.196 367.778C133.137 367.989 134.007 368.292 134.807 368.688L133.699 371.298C133.031 370.982 132.333 370.709 131.603 370.481C130.874 370.252 130.118 370.138 129.335 370.138ZM150.179 387L148.293 381.647H140.924L139.039 387H135.703L142.875 367.646H146.382L153.541 387H150.179ZM147.476 378.932L145.644 373.658C145.573 373.43 145.472 373.109 145.34 372.696C145.208 372.274 145.077 371.848 144.945 371.417C144.813 370.978 144.703 370.608 144.615 370.31C144.527 370.67 144.417 371.074 144.286 371.522C144.163 371.962 144.04 372.375 143.917 372.762C143.802 373.148 143.714 373.447 143.653 373.658L141.807 378.932H147.476ZM167.212 381.753C167.212 382.896 166.931 383.88 166.368 384.706C165.814 385.532 165.015 386.165 163.969 386.604C162.932 387.044 161.692 387.264 160.251 387.264C159.548 387.264 158.875 387.224 158.234 387.145C157.592 387.066 156.986 386.952 156.415 386.802C155.852 386.644 155.338 386.455 154.872 386.235V383.256C155.654 383.599 156.529 383.911 157.496 384.192C158.462 384.464 159.447 384.601 160.449 384.601C161.266 384.601 161.943 384.495 162.479 384.284C163.024 384.064 163.428 383.757 163.692 383.361C163.956 382.957 164.087 382.487 164.087 381.951C164.087 381.379 163.934 380.896 163.626 380.5C163.318 380.105 162.853 379.745 162.229 379.419C161.613 379.085 160.84 378.729 159.908 378.352C159.275 378.097 158.669 377.807 158.089 377.481C157.518 377.156 157.008 376.774 156.56 376.334C156.111 375.895 155.755 375.376 155.492 374.779C155.237 374.172 155.109 373.46 155.109 372.643C155.109 371.553 155.369 370.622 155.887 369.848C156.415 369.075 157.153 368.481 158.102 368.068C159.06 367.655 160.176 367.449 161.451 367.449C162.461 367.449 163.411 367.554 164.298 367.765C165.195 367.976 166.074 368.275 166.935 368.662L165.933 371.206C165.142 370.881 164.373 370.622 163.626 370.428C162.888 370.235 162.132 370.138 161.358 370.138C160.69 370.138 160.124 370.239 159.658 370.441C159.192 370.644 158.836 370.929 158.59 371.298C158.353 371.659 158.234 372.089 158.234 372.59C158.234 373.153 158.37 373.627 158.643 374.014C158.924 374.392 159.354 374.739 159.935 375.056C160.523 375.372 161.279 375.724 162.202 376.11C163.266 376.55 164.167 377.011 164.905 377.495C165.652 377.978 166.223 378.558 166.619 379.235C167.014 379.903 167.212 380.742 167.212 381.753ZM181.846 387H170.93V367.726H181.846V370.389H174.094V375.623H181.358V378.272H174.094V384.324H181.846V387ZM204.152 381.753C204.152 382.896 203.871 383.88 203.309 384.706C202.755 385.532 201.955 386.165 200.909 386.604C199.872 387.044 198.633 387.264 197.191 387.264C196.488 387.264 195.816 387.224 195.174 387.145C194.533 387.066 193.926 386.952 193.355 386.802C192.792 386.644 192.278 386.455 191.812 386.235V383.256C192.595 383.599 193.469 383.911 194.436 384.192C195.403 384.464 196.387 384.601 197.389 384.601C198.207 384.601 198.883 384.495 199.419 384.284C199.964 384.064 200.369 383.757 200.632 383.361C200.896 382.957 201.028 382.487 201.028 381.951C201.028 381.379 200.874 380.896 200.566 380.5C200.259 380.105 199.793 379.745 199.169 379.419C198.554 379.085 197.78 378.729 196.849 378.352C196.216 378.097 195.609 377.807 195.029 377.481C194.458 377.156 193.948 376.774 193.5 376.334C193.052 375.895 192.696 375.376 192.432 374.779C192.177 374.172 192.05 373.46 192.05 372.643C192.05 371.553 192.309 370.622 192.828 369.848C193.355 369.075 194.093 368.481 195.042 368.068C196 367.655 197.117 367.449 198.391 367.449C199.402 367.449 200.351 367.554 201.239 367.765C202.135 367.976 203.014 368.275 203.875 368.662L202.874 371.206C202.083 370.881 201.313 370.622 200.566 370.428C199.828 370.235 199.072 370.138 198.299 370.138C197.631 370.138 197.064 370.239 196.598 370.441C196.132 370.644 195.776 370.929 195.53 371.298C195.293 371.659 195.174 372.089 195.174 372.59C195.174 373.153 195.311 373.627 195.583 374.014C195.864 374.392 196.295 374.739 196.875 375.056C197.464 375.372 198.22 375.724 199.143 376.11C200.206 376.55 201.107 377.011 201.845 377.495C202.592 377.978 203.164 378.558 203.559 379.235C203.955 379.903 204.152 380.742 204.152 381.753ZM214.554 387H211.377V370.415H205.734V367.726H220.184V370.415H214.554V387ZM238.271 367.726V380.197C238.271 381.542 237.986 382.746 237.415 383.81C236.852 384.873 236 385.717 234.857 386.341C233.714 386.956 232.277 387.264 230.546 387.264C228.076 387.264 226.195 386.618 224.903 385.326C223.62 384.025 222.979 382.298 222.979 380.145V367.726H226.143V379.868C226.143 381.476 226.521 382.663 227.276 383.427C228.032 384.192 229.162 384.574 230.665 384.574C231.702 384.574 232.545 384.394 233.196 384.034C233.855 383.665 234.338 383.128 234.646 382.425C234.962 381.713 235.121 380.856 235.121 379.854V367.726H238.271ZM258.851 377.178C258.851 379.349 258.447 381.164 257.638 382.623C256.83 384.073 255.656 385.167 254.118 385.906C252.58 386.635 250.726 387 248.555 387H243.202V367.726H249.135C251.13 367.726 252.853 368.086 254.303 368.807C255.753 369.519 256.874 370.578 257.665 371.984C258.456 373.381 258.851 375.113 258.851 377.178ZM255.555 377.271C255.555 375.688 255.305 374.388 254.804 373.368C254.312 372.349 253.582 371.593 252.615 371.101C251.657 370.6 250.475 370.349 249.069 370.349H246.366V384.35H248.607C250.937 384.35 252.677 383.757 253.828 382.57C254.979 381.384 255.555 379.617 255.555 377.271ZM268.462 376.519L273.037 367.726H276.451L270.044 379.512V387H266.893V379.63L260.473 367.726H263.914L268.462 376.519Z" fill="#0071DC"/>
<path d="M296.168 453.805L258.199 608H208.945L194.18 540.816C193.898 539.551 193.441 537.406 192.809 534.383C192.246 531.359 191.578 527.914 190.805 524.047C190.102 520.18 189.434 516.383 188.801 512.656C188.238 508.859 187.816 505.66 187.535 503.059C187.254 505.66 186.797 508.859 186.164 512.656C185.531 516.383 184.828 520.18 184.055 524.047C183.352 527.914 182.648 531.359 181.945 534.383C181.312 537.406 180.855 539.551 180.574 540.816L165.703 608H116.449L78.2695 453.805H118.453L135.223 531.113C135.645 533.012 136.207 535.719 136.91 539.234C137.684 542.68 138.457 546.477 139.23 550.625C140.074 554.703 140.848 558.641 141.551 562.438C142.254 566.234 142.746 569.398 143.027 571.93C143.59 567.57 144.328 562.613 145.242 557.059C146.227 551.504 147.281 545.879 148.406 540.184C149.602 534.418 150.727 529.074 151.781 524.152C152.836 519.23 153.75 515.223 154.523 512.129L168.129 453.805H206.73L219.914 512.129C220.617 515.152 221.496 519.16 222.551 524.152C223.676 529.074 224.801 534.418 225.926 540.184C227.121 545.949 228.211 551.645 229.195 557.27C230.18 562.824 230.918 567.711 231.41 571.93C231.832 568.414 232.535 563.984 233.52 558.641C234.504 553.227 235.488 547.988 236.473 542.926C237.527 537.793 238.336 533.926 238.898 531.324L255.984 453.805H296.168ZM372 486.395C387.117 486.395 398.93 490.156 407.438 497.68C415.945 505.133 420.199 515.785 420.199 529.637V608H391.617L383.707 592.18H382.863C379.488 596.398 376.008 599.844 372.422 602.516C368.906 605.117 364.863 607.016 360.293 608.211C355.723 609.477 350.133 610.109 343.523 610.109C336.633 610.109 330.445 608.703 324.961 605.891C319.477 603.078 315.152 598.824 311.988 593.129C308.824 587.434 307.242 580.227 307.242 571.508C307.242 558.711 311.672 549.219 320.531 543.031C329.391 536.844 342.223 533.363 359.027 532.59L378.961 531.957V530.27C378.961 524.926 377.625 521.129 374.953 518.879C372.352 516.629 368.836 515.504 364.406 515.504C359.695 515.504 354.422 516.348 348.586 518.035C342.82 519.652 337.02 521.762 331.184 524.363L319.266 497.152C326.156 493.637 333.961 490.965 342.68 489.137C351.398 487.309 361.172 486.395 372 486.395ZM379.172 554.633L369.68 555.055C362.086 555.336 356.742 556.672 353.648 559.062C350.625 561.383 349.113 564.723 349.113 569.082C349.113 573.16 350.203 576.184 352.383 578.152C354.562 580.051 357.445 581 361.031 581C366.023 581 370.277 579.418 373.793 576.254C377.379 573.09 379.172 568.977 379.172 563.914V554.633ZM489.492 608H448.254V443.891H489.492V608ZM663.938 486.395C677.578 486.395 687.984 489.875 695.156 496.836C702.398 503.797 706.02 514.941 706.02 530.27V608H664.781V543.031C664.781 533.961 663.551 527.668 661.09 524.152C658.699 520.566 655.113 518.773 650.332 518.773C643.652 518.773 639.012 521.691 636.41 527.527C633.879 533.363 632.613 541.625 632.613 552.312V608H591.27V543.031C591.27 537.266 590.742 532.625 589.688 529.109C588.703 525.523 587.191 522.922 585.152 521.305C583.113 519.617 580.547 518.773 577.453 518.773C572.742 518.773 569.051 520.215 566.379 523.098C563.777 525.91 561.949 530.059 560.895 535.543C559.84 541.027 559.312 547.742 559.312 555.688V608H518.074V488.504H549.188L555.199 503.27H556.359C558.469 500.035 561.176 497.152 564.48 494.621C567.855 492.09 571.828 490.086 576.398 488.609C581.039 487.133 586.312 486.395 592.219 486.395C601.008 486.395 608.25 487.871 613.945 490.824C619.641 493.777 624.281 497.855 627.867 503.059H629.133C632.93 497.715 637.816 493.602 643.793 490.719C649.77 487.836 656.484 486.395 663.938 486.395ZM792.398 486.395C807.516 486.395 819.328 490.156 827.836 497.68C836.344 505.133 840.598 515.785 840.598 529.637V608H812.016L804.105 592.18H803.262C799.887 596.398 796.406 599.844 792.82 602.516C789.305 605.117 785.262 607.016 780.691 608.211C776.121 609.477 770.531 610.109 763.922 610.109C757.031 610.109 750.844 608.703 745.359 605.891C739.875 603.078 735.551 598.824 732.387 593.129C729.223 587.434 727.641 580.227 727.641 571.508C727.641 558.711 732.07 549.219 740.93 543.031C749.789 536.844 762.621 533.363 779.426 532.59L799.359 531.957V530.27C799.359 524.926 798.023 521.129 795.352 518.879C792.75 516.629 789.234 515.504 784.805 515.504C780.094 515.504 774.82 516.348 768.984 518.035C763.219 519.652 757.418 521.762 751.582 524.363L739.664 497.152C746.555 493.637 754.359 490.965 763.078 489.137C771.797 487.309 781.57 486.395 792.398 486.395ZM799.57 554.633L790.078 555.055C782.484 555.336 777.141 556.672 774.047 559.062C771.023 561.383 769.512 564.723 769.512 569.082C769.512 573.16 770.602 576.184 772.781 578.152C774.961 580.051 777.844 581 781.43 581C786.422 581 790.676 579.418 794.191 576.254C797.777 573.09 799.57 568.977 799.57 563.914V554.633ZM940.793 486.395C943.043 486.395 945.398 486.57 947.859 486.922C950.32 487.203 952.148 487.449 953.344 487.66L949.652 526.578C948.316 526.227 946.594 525.945 944.484 525.734C942.375 525.453 939.422 525.312 935.625 525.312C933.023 525.312 930.246 525.559 927.293 526.051C924.34 526.543 921.527 527.598 918.855 529.215C916.254 530.762 914.109 533.152 912.422 536.387C910.734 539.551 909.891 543.84 909.891 549.254V608H868.652V488.504H899.344L905.777 507.594H907.781C909.961 503.656 912.738 500.105 916.113 496.941C919.559 493.707 923.391 491.141 927.609 489.242C931.898 487.344 936.293 486.395 940.793 486.395ZM1028.65 577.52C1032.38 577.52 1035.79 577.133 1038.88 576.359C1041.97 575.586 1045.21 574.602 1048.58 573.406V603.465C1044.08 605.434 1039.3 607.016 1034.24 608.211C1029.25 609.477 1022.85 610.109 1015.04 610.109C1007.31 610.109 1000.49 608.914 994.582 606.523C988.676 604.062 984.07 599.844 980.766 593.867C977.531 587.82 975.914 579.418 975.914 568.66V519.406H961.465V502.637L979.816 489.664L990.469 464.562H1017.47V488.504H1046.79V519.406H1017.47V565.918C1017.47 569.785 1018.45 572.703 1020.42 574.672C1022.39 576.57 1025.13 577.52 1028.65 577.52ZM1064.3 590.492C1064.3 583.039 1066.48 577.801 1070.84 574.777C1075.27 571.754 1080.57 570.242 1086.76 570.242C1092.6 570.242 1097.66 571.754 1101.95 574.777C1106.24 577.801 1108.38 583.039 1108.38 590.492C1108.38 597.594 1106.24 602.727 1101.95 605.891C1097.66 609.055 1092.6 610.637 1086.76 610.637C1080.57 610.637 1075.27 609.055 1070.84 605.891C1066.48 602.727 1064.3 597.594 1064.3 590.492ZM1186.32 610.109C1174.23 610.109 1163.72 607.965 1154.79 603.676C1145.86 599.316 1138.93 592.637 1134.01 583.637C1129.16 574.566 1126.73 562.965 1126.73 548.832C1126.73 534.348 1129.44 522.5 1134.86 513.289C1140.34 504.078 1147.83 497.293 1157.32 492.934C1166.81 488.574 1177.57 486.395 1189.59 486.395C1196.91 486.395 1203.83 487.203 1210.37 488.82C1216.98 490.438 1223.1 492.652 1228.72 495.465L1216.59 525.945C1211.67 523.766 1207.07 522.043 1202.78 520.777C1198.56 519.441 1194.16 518.773 1189.59 518.773C1185.45 518.773 1181.79 519.863 1178.62 522.043C1175.46 524.223 1173 527.527 1171.24 531.957C1169.48 536.316 1168.61 541.871 1168.61 548.621C1168.61 555.512 1169.48 561.066 1171.24 565.285C1173.07 569.504 1175.57 572.562 1178.73 574.461C1181.96 576.359 1185.66 577.309 1189.8 577.309C1195.78 577.309 1201.72 576.395 1207.63 574.566C1213.61 572.668 1219.27 570.066 1224.61 566.762V599.562C1219.69 602.797 1214.13 605.363 1207.95 607.262C1201.76 609.16 1194.55 610.109 1186.32 610.109ZM1306.66 486.395C1321.78 486.395 1333.59 490.156 1342.1 497.68C1350.61 505.133 1354.86 515.785 1354.86 529.637V608H1326.28L1318.37 592.18H1317.53C1314.15 596.398 1310.67 599.844 1307.09 602.516C1303.57 605.117 1299.53 607.016 1294.96 608.211C1290.39 609.477 1284.8 610.109 1278.19 610.109C1271.3 610.109 1265.11 608.703 1259.62 605.891C1254.14 603.078 1249.82 598.824 1246.65 593.129C1243.49 587.434 1241.91 580.227 1241.91 571.508C1241.91 558.711 1246.34 549.219 1255.2 543.031C1264.05 536.844 1276.89 533.363 1293.69 532.59L1313.62 531.957V530.27C1313.62 524.926 1312.29 521.129 1309.62 518.879C1307.02 516.629 1303.5 515.504 1299.07 515.504C1294.36 515.504 1289.09 516.348 1283.25 518.035C1277.48 519.652 1271.68 521.762 1265.85 524.363L1253.93 497.152C1260.82 493.637 1268.62 490.965 1277.34 489.137C1286.06 487.309 1295.84 486.395 1306.66 486.395ZM1313.84 554.633L1304.34 555.055C1296.75 555.336 1291.41 556.672 1288.31 559.062C1285.29 561.383 1283.78 564.723 1283.78 569.082C1283.78 573.16 1284.87 576.184 1287.05 578.152C1289.23 580.051 1292.11 581 1295.7 581C1300.69 581 1304.94 579.418 1308.46 576.254C1312.04 573.09 1313.84 568.977 1313.84 563.914V554.633Z" fill="white"/>
<rect y="1060" width="1920" height="20" fill="#FFC220"/>
</g>
<defs>
<clipPath id="clip0_307_719">
<rect width="1920" height="1080" fill="white"/>
</clipPath>
</defs>
</svg>
