<svg xmlns="http://www.w3.org/2000/svg" xmlns:xlink="http://www.w3.org/1999/xlink" width="548" zoomAndPan="magnify" viewBox="0 0 410.88 323.999988" height="432" preserveAspectRatio="xMidYMid meet" version="1.0"><defs><g/><clipPath id="42c30346a0"><path d="M 23 24 L 302 24 L 302 305 L 23 305 Z M 23 24 " clip-rule="nonzero"/></clipPath><clipPath id="5727248a5e"><path d="M 52.546875 0.046875 L 301.457031 47.671875 L 248.902344 322.355469 L -0.0078125 274.734375 Z M 52.546875 0.046875 " clip-rule="nonzero"/></clipPath><clipPath id="56ed1cd949"><path d="M 52.546875 0.046875 L 328.703125 52.882812 L 275.871094 329.042969 L -0.289062 276.207031 Z M 52.546875 0.046875 " clip-rule="nonzero"/></clipPath></defs><g clip-path="url(#42c30346a0)"><g clip-path="url(#5727248a5e)"><g clip-path="url(#56ed1cd949)"><path fill="#f2f1ec" d="M 139.765625 302.644531 C 157.847656 305.832031 176.472656 305.453125 194.285156 301.519531 C 212.097656 297.589844 229.136719 290.246094 244.09375 279.921875 C 259.050781 269.597656 272.046875 256.382812 281.949219 241.214844 C 291.917969 226.0625 298.804688 208.894531 302.214844 191.058594 C 298.804688 208.894531 291.851562 226.050781 281.882812 241.203125 C 271.914062 256.355469 258.800781 269.480469 243.761719 279.515625 C 228.710938 289.621094 211.671875 296.621094 193.949219 300.097656 C 176.222656 303.570312 157.839844 303.382812 140.25 299.746094 C 122.664062 296.109375 105.882812 288.957031 91.085938 278.921875 C 76.351562 268.898438 63.605469 255.925781 53.859375 241.144531 C 44.046875 226.355469 37.179688 209.679688 33.773438 192.308594 C 30.289062 174.988281 30.269531 156.972656 33.582031 139.664062 C 36.90625 122.289062 43.5625 105.617188 53.191406 90.808594 C 62.824219 75.996094 75.363281 63.035156 89.875 52.898438 C 104.453125 42.773438 121.019531 35.410156 138.414062 31.53125 C 155.964844 27.550781 174.1875 27.160156 191.875 30.273438 C 209.5625 33.386719 226.71875 39.996094 241.910156 49.769531 C 257.113281 59.472656 270.351562 72.339844 280.675781 87.296875 C 290.933594 102.242188 298.222656 119.199219 301.960938 136.976562 C 305.695312 154.75 305.757812 173.25 302.347656 191.082031 C 305.757812 173.25 305.695312 154.75 302.027344 136.988281 C 298.367188 119.160156 291.222656 102.160156 281.132812 87.042969 C 271.042969 71.925781 257.929688 58.746094 242.816406 48.582031 C 227.605469 38.195312 210.421875 31.035156 192.453125 27.257812 C 174.472656 23.542969 155.695312 23.28125 137.550781 26.8125 C 119.421875 30.277344 101.882812 37.386719 86.402344 47.613281 C 70.917969 57.835938 57.480469 71.238281 47.109375 86.722656 C 36.804688 102.21875 29.621094 119.875 26.121094 138.167969 C 22.621094 156.460938 22.78125 175.523438 26.703125 193.742188 C 30.558594 211.949219 38.167969 229.375 48.78125 244.59375 C 59.398438 259.808594 73.003906 272.878906 88.640625 282.804688 C 104.136719 292.769531 121.683594 299.457031 139.765625 302.644531 Z M 139.765625 302.644531 " fill-opacity="1" fill-rule="nonzero"/></g></g></g><g fill="#41c1ba" fill-opacity="1"><g transform="translate(179.135144, 257.564732)"><g><path d="M 37.78125 -76.546875 C 41.019531 -75.472656 43.675781 -73.457031 45.75 -70.5 C 47.8125 -67.59375 49.15625 -63.90625 49.78125 -59.4375 C 50.21875 -56.300781 50.289062 -53.226562 50 -50.21875 C 49.65625 -47.21875 48.878906 -43.921875 47.671875 -40.328125 C 45.335938 -33.304688 42.015625 -26.832031 37.703125 -20.90625 C 33.410156 -14.914062 28.859375 -10.519531 24.046875 -7.71875 C 22.953125 -7.039062 22.003906 -6.554688 21.203125 -6.265625 C 20.421875 -5.972656 19.335938 -5.703125 17.953125 -5.453125 C 16.453125 -5.179688 15.40625 -5.035156 14.8125 -5.015625 C 14.226562 -4.984375 13.5625 -5.128906 12.8125 -5.453125 C 11.820312 -5.773438 11.019531 -6.21875 10.40625 -6.78125 L 10.296875 -6.859375 C 9.691406 -7.484375 9.164062 -8.320312 8.71875 -9.375 C 7.5625 -12.113281 8.320312 -15.71875 11 -20.1875 C 13.644531 -24.570312 17.878906 -29.1875 23.703125 -34.03125 C 24.503906 -34.6875 25.253906 -35.265625 25.953125 -35.765625 C 26.710938 -36.234375 27.207031 -36.484375 27.4375 -36.515625 C 28.363281 -36.640625 29.097656 -36.269531 29.640625 -35.40625 C 30.109375 -34.570312 30.039062 -33.785156 29.4375 -33.046875 C 29.28125 -32.910156 28.734375 -32.394531 27.796875 -31.5 C 26.898438 -30.664062 25.867188 -29.75 24.703125 -28.75 C 21.066406 -25.582031 18.117188 -22.390625 15.859375 -19.171875 C 13.640625 -15.960938 12.648438 -13.488281 12.890625 -11.75 C 12.984375 -10.695312 13.34375 -10.066406 13.96875 -9.859375 C 14.582031 -9.640625 15.726562 -9.679688 17.40625 -9.984375 C 20.113281 -10.535156 22.992188 -12.15625 26.046875 -14.84375 C 29.117188 -17.457031 32.03125 -20.734375 34.78125 -24.671875 C 36.269531 -26.765625 37.644531 -28.992188 38.90625 -31.359375 C 40.15625 -33.785156 41.289062 -36.253906 42.3125 -38.765625 C 43.738281 -42.460938 44.695312 -45.941406 45.1875 -49.203125 C 45.675781 -52.398438 45.707031 -55.507812 45.28125 -58.53125 C 44.832031 -61.78125 43.976562 -64.53125 42.71875 -66.78125 C 41.457031 -69.019531 39.835938 -70.65625 37.859375 -71.6875 C 35.367188 -73.0625 32.234375 -73.035156 28.453125 -71.609375 C 24.742188 -70.265625 20.757812 -67.691406 16.5 -63.890625 C 13.082031 -60.867188 9.957031 -57.445312 7.125 -53.625 C 4.226562 -49.789062 0.957031 -44.625 -2.6875 -38.125 C -3.289062 -36.976562 -3.890625 -35.976562 -4.484375 -35.125 C -5.015625 -34.226562 -5.359375 -33.707031 -5.515625 -33.5625 C -6.128906 -32.882812 -6.867188 -32.695312 -7.734375 -33 C -8.597656 -33.226562 -9.09375 -33.804688 -9.21875 -34.734375 C -9.289062 -35.191406 -8.691406 -36.601562 -7.421875 -38.96875 C -6.148438 -41.34375 -4.410156 -44.335938 -2.203125 -47.953125 C 1.753906 -54.367188 5.976562 -59.875 10.46875 -64.46875 C 14.976562 -69.070312 19.585938 -72.523438 24.296875 -74.828125 C 25.722656 -75.578125 26.859375 -76.0625 27.703125 -76.28125 C 28.609375 -76.59375 29.789062 -76.847656 31.25 -77.046875 C 32.875 -77.273438 34.007812 -77.378906 34.65625 -77.359375 C 35.25 -77.335938 36.289062 -77.066406 37.78125 -76.546875 Z M 14.234375 -55.953125 C 14.765625 -56.023438 15.226562 -55.9375 15.625 -55.6875 C 15.625 -55.632812 15.648438 -55.613281 15.703125 -55.625 C 16.097656 -55.320312 16.34375 -54.851562 16.4375 -54.21875 C 16.46875 -53.988281 16.082031 -52.304688 15.28125 -49.171875 C 14.488281 -46.046875 13.519531 -42.421875 12.375 -38.296875 C 11.625 -35.585938 10.78125 -32.515625 9.84375 -29.078125 C 8.914062 -25.628906 8.023438 -22.304688 7.171875 -19.109375 C 6.703125 -17.378906 6.253906 -15.722656 5.828125 -14.140625 C 5.398438 -12.523438 5.003906 -11.101562 4.640625 -9.875 C 3.648438 -6.019531 2.753906 -2.757812 1.953125 -0.09375 C 1.128906 2.5625 0.617188 3.992188 0.421875 4.203125 C 0.015625 4.671875 -0.363281 4.929688 -0.71875 4.984375 C -1 5.078125 -1.457031 4.960938 -2.09375 4.640625 C -2.351562 4.492188 -2.59375 4.296875 -2.8125 4.046875 C -2.976562 3.703125 -3.082031 3.382812 -3.125 3.09375 C -3.195312 2.570312 -2.34375 -1.09375 -0.5625 -7.90625 C 1.1875 -14.71875 3.960938 -25.046875 7.765625 -38.890625 C 8.515625 -41.585938 9.164062 -43.898438 9.71875 -45.828125 C 10.21875 -47.722656 10.648438 -49.285156 11.015625 -50.515625 C 11.691406 -52.867188 12.171875 -54.328125 12.453125 -54.890625 C 12.773438 -55.472656 13.140625 -55.789062 13.546875 -55.84375 L 13.90625 -55.890625 Z M 14.234375 -55.953125 "/></g></g></g><g fill="#41c1ba" fill-opacity="1"><g transform="translate(232.65082, 250.054796)"><g><path d="M 6.859375 -36.53125 C 7.828125 -36.3125 8.59375 -35.890625 9.15625 -35.265625 C 9.71875 -34.640625 10.082031 -33.742188 10.25 -32.578125 C 10.550781 -30.429688 10.019531 -28.289062 8.65625 -26.15625 C 7.375 -23.96875 5.351562 -21.941406 2.59375 -20.078125 C 1.894531 -19.554688 0.816406 -18.804688 -0.640625 -17.828125 C -0.765625 -17.046875 -0.703125 -16.378906 -0.453125 -15.828125 C -0.179688 -15.210938 0.148438 -14.722656 0.546875 -14.359375 C 0.835938 -14.054688 1.25 -13.910156 1.78125 -13.921875 C 2.25 -13.867188 2.914062 -13.929688 3.78125 -14.109375 C 5.84375 -14.566406 8.226562 -15.9375 10.9375 -18.21875 C 13.632812 -20.488281 16.5625 -23.625 19.71875 -27.625 C 20.625 -28.8125 21.460938 -29.84375 22.234375 -30.71875 C 22.992188 -31.582031 23.457031 -32.0625 23.625 -32.15625 C 24.175781 -32.414062 24.773438 -32.351562 25.421875 -31.96875 C 26.015625 -31.507812 26.359375 -30.9375 26.453125 -30.25 C 26.523438 -29.71875 26.375 -29.132812 26 -28.5 C 25.613281 -27.84375 24.695312 -26.585938 23.25 -24.734375 C 19.351562 -19.566406 15.46875 -15.59375 11.59375 -12.8125 C 8.59375 -10.613281 5.929688 -9.351562 3.609375 -9.03125 C 2.972656 -8.9375 2.328125 -8.9375 1.671875 -9.03125 C -0.617188 -9.289062 -2.398438 -10.335938 -3.671875 -12.171875 C -4.484375 -13.359375 -5.003906 -14.757812 -5.234375 -16.375 C -5.359375 -17.3125 -5.40625 -18.320312 -5.375 -19.40625 C -5.125 -23.445312 -3.878906 -27.191406 -1.640625 -30.640625 C 0.585938 -34.148438 2.921875 -36.101562 5.359375 -36.5 L 5.4375 -36.515625 L 6.125 -36.609375 Z M 1.171875 -26.34375 C 0.742188 -25.269531 0.539062 -24.648438 0.5625 -24.484375 C 0.632812 -24.316406 1.023438 -24.488281 1.734375 -25 C 2.921875 -25.8125 4.003906 -27.148438 4.984375 -29.015625 C 6.015625 -30.867188 6.128906 -31.738281 5.328125 -31.625 C 5.035156 -31.582031 4.359375 -30.898438 3.296875 -29.578125 C 2.304688 -28.242188 1.597656 -27.164062 1.171875 -26.34375 Z M 1.171875 -26.34375 "/></g></g></g><g fill="#41c1ba" fill-opacity="1"><g transform="translate(259.36515, 246.305933)"><g><path d="M 8.328125 -39.859375 C 8.835938 -39.222656 8.957031 -38.585938 8.6875 -37.953125 C 8.363281 -37.316406 7.3125 -35.988281 5.53125 -33.96875 C 3.175781 -31.332031 1.75 -29.085938 1.25 -27.234375 C 0.738281 -25.328125 1.066406 -23.601562 2.234375 -22.0625 C 2.585938 -21.632812 2.960938 -21.238281 3.359375 -20.875 C 3.773438 -20.46875 4.113281 -20.21875 4.375 -20.125 C 4.925781 -19.90625 5.394531 -19.945312 5.78125 -20.25 C 6.207031 -20.488281 7.894531 -21.878906 10.84375 -24.421875 C 13.601562 -26.753906 16.007812 -28.625 18.0625 -30.03125 C 20.101562 -31.445312 21.507812 -32.179688 22.28125 -32.234375 C 22.988281 -32.203125 23.582031 -31.929688 24.0625 -31.421875 C 24.351562 -31.046875 24.523438 -30.679688 24.578125 -30.328125 C 24.609375 -30.109375 24.582031 -29.867188 24.5 -29.609375 C 24.414062 -29.367188 24.035156 -28.9375 23.359375 -28.3125 C 22.679688 -27.675781 21.878906 -27.054688 20.953125 -26.453125 C 19.609375 -25.492188 17.957031 -24.203125 16 -22.578125 C 14.082031 -21.003906 11.890625 -19.148438 9.421875 -17.015625 C 9.097656 -16.742188 8.957031 -16.460938 9 -16.171875 C 8.988281 -15.878906 9.210938 -15.347656 9.671875 -14.578125 C 10.148438 -13.640625 10.382812 -12.398438 10.375 -10.859375 C 10.40625 -9.328125 10.160156 -8.082031 9.640625 -7.125 C 9.191406 -6.164062 8.5 -5.207031 7.5625 -4.25 C 6.59375 -3.226562 5.691406 -2.476562 4.859375 -2 C 4.242188 -1.6875 3.59375 -1.476562 2.90625 -1.375 C 2.550781 -1.332031 2.203125 -1.3125 1.859375 -1.3125 C 0.722656 -1.332031 -0.140625 -1.570312 -0.734375 -2.03125 C -1.773438 -2.769531 -2.390625 -3.78125 -2.578125 -5.0625 C -2.640625 -5.519531 -2.625 -6.050781 -2.53125 -6.65625 C -2.332031 -8.695312 -1.359375 -11.019531 0.390625 -13.625 C 0.734375 -14.144531 1.023438 -14.632812 1.265625 -15.09375 C 1.503906 -15.476562 1.617188 -15.695312 1.609375 -15.75 C 1.648438 -15.8125 1.492188 -16.054688 1.140625 -16.484375 C 0.796875 -16.859375 0.390625 -17.273438 -0.078125 -17.734375 C -1.390625 -19.023438 -2.300781 -20.234375 -2.8125 -21.359375 C -3.394531 -22.503906 -3.691406 -23.753906 -3.703125 -25.109375 C -3.742188 -27.066406 -3.175781 -29.164062 -2 -31.40625 C -0.84375 -33.644531 0.976562 -36.03125 3.46875 -38.5625 C 4.1875 -39.3125 4.804688 -39.898438 5.328125 -40.328125 C 5.765625 -40.671875 6.1875 -40.875 6.59375 -40.9375 L 6.671875 -40.9375 C 6.960938 -40.925781 7.242188 -40.820312 7.515625 -40.625 C 7.773438 -40.488281 8.046875 -40.234375 8.328125 -39.859375 Z M 2.234375 -6.796875 C 2.285156 -6.441406 2.347656 -6.210938 2.421875 -6.109375 C 2.492188 -6.066406 2.664062 -6.117188 2.9375 -6.265625 C 3.15625 -6.359375 3.394531 -6.539062 3.65625 -6.8125 C 3.96875 -7.09375 4.226562 -7.363281 4.4375 -7.625 C 5.15625 -8.375 5.585938 -9.320312 5.734375 -10.46875 C 5.910156 -11.625 5.738281 -12.191406 5.21875 -12.171875 C 4.925781 -12.128906 4.351562 -11.34375 3.5 -9.8125 C 2.65625 -8.28125 2.234375 -7.273438 2.234375 -6.796875 Z M 2.234375 -6.796875 "/></g></g></g><g fill="#41c1ba" fill-opacity="1"><g transform="translate(284.339132, 242.801296)"><g><path d="M -1.890625 -7.71875 C -3.585938 -8.488281 -4.632812 -10.289062 -5.03125 -13.125 C -5.09375 -13.59375 -5.144531 -14.148438 -5.1875 -14.796875 C -5.351562 -18.554688 -4.648438 -23.894531 -3.078125 -30.8125 C -2.703125 -32.332031 -2.410156 -33.378906 -2.203125 -33.953125 C -1.921875 -34.503906 -1.609375 -34.867188 -1.265625 -35.046875 C -0.835938 -35.285156 -0.378906 -35.378906 0.109375 -35.328125 L 0.65625 -35.21875 C 1.28125 -34.957031 1.695312 -34.519531 1.90625 -33.90625 C 2 -33.613281 1.96875 -32.957031 1.8125 -31.9375 C 1.65625 -30.90625 1.445312 -29.660156 1.1875 -28.203125 C 0.488281 -25.140625 0.0234375 -22.53125 -0.203125 -20.375 C -0.492188 -18.269531 -0.585938 -16.425781 -0.484375 -14.84375 C -0.398438 -13.84375 -0.3125 -13.203125 -0.21875 -12.921875 C -0.101562 -12.578125 0.0664062 -12.421875 0.296875 -12.453125 C 0.640625 -12.453125 1.382812 -13.242188 2.53125 -14.828125 C 3.726562 -16.410156 4.957031 -18.175781 6.21875 -20.125 C 6.894531 -21.226562 7.546875 -22.265625 8.171875 -23.234375 C 8.804688 -24.273438 9.363281 -25.210938 9.84375 -26.046875 C 10.539062 -27.328125 11.203125 -28.457031 11.828125 -29.4375 C 12.460938 -30.414062 12.835938 -30.9375 12.953125 -31 C 13.890625 -31.4375 14.738281 -31.296875 15.5 -30.578125 C 15.914062 -30.160156 16.15625 -29.71875 16.21875 -29.25 C 16.28125 -28.84375 16.25 -28.425781 16.125 -28 C 15.90625 -27.5 15.515625 -26.703125 14.953125 -25.609375 C 14.441406 -24.585938 13.804688 -23.4375 13.046875 -22.15625 C 12.015625 -20.226562 10.894531 -18.289062 9.6875 -16.34375 C 8.476562 -14.40625 7.519531 -13.03125 6.8125 -12.21875 C 5.082031 -10.207031 3.492188 -8.832031 2.046875 -8.09375 C 0.609375 -7.363281 -0.703125 -7.238281 -1.890625 -7.71875 Z M 0.078125 -39.3125 C -0.523438 -39.820312 -0.816406 -40.410156 -0.796875 -41.078125 C -0.703125 -41.722656 -0.3125 -42.304688 0.375 -42.828125 C 1.007812 -43.328125 1.710938 -43.394531 2.484375 -43.03125 C 3.234375 -42.65625 3.671875 -42.035156 3.796875 -41.171875 C 3.921875 -40.296875 3.515625 -39.617188 2.578125 -39.140625 C 2.140625 -38.898438 1.710938 -38.773438 1.296875 -38.765625 C 0.867188 -38.835938 0.460938 -39.019531 0.078125 -39.3125 Z M 0.078125 -39.3125 "/></g></g></g><g fill="#41c1ba" fill-opacity="1"><g transform="translate(300.698395, 240.505576)"><g><path d="M 10.921875 -39.765625 C 11.554688 -39.453125 12.050781 -39.289062 12.40625 -39.28125 C 12.832031 -39.21875 13.332031 -39.253906 13.90625 -39.390625 C 14.476562 -39.597656 14.910156 -39.660156 15.203125 -39.578125 C 15.503906 -39.566406 15.894531 -39.351562 16.375 -38.9375 C 16.832031 -38.59375 17.15625 -38.164062 17.34375 -37.65625 C 17.53125 -37.15625 17.773438 -36.035156 18.078125 -34.296875 L 18.34375 -32.40625 L 18.671875 -30.046875 C 18.835938 -28.410156 18.988281 -26.710938 19.125 -24.953125 C 19.351562 -21.671875 19.484375 -18.257812 19.515625 -14.71875 C 19.523438 -11.175781 19.421875 -8.082031 19.203125 -5.4375 C 18.492188 3.414062 16.84375 10.628906 14.25 16.203125 C 11.59375 21.710938 8.039062 25.488281 3.59375 27.53125 C 2.59375 27.957031 1.113281 28.34375 -0.84375 28.6875 L -1.796875 28.828125 C -3.304688 29.035156 -4.429688 29.070312 -5.171875 28.9375 C -6.742188 28.6875 -8.21875 28.097656 -9.59375 27.171875 C -10.957031 26.234375 -11.960938 25.128906 -12.609375 23.859375 C -13.191406 22.765625 -13.566406 21.632812 -13.734375 20.46875 C -13.953125 18.90625 -13.847656 17.300781 -13.421875 15.65625 C -12.660156 12.582031 -10.945312 9.203125 -8.28125 5.515625 C -5.988281 2.472656 -3.109375 -0.441406 0.359375 -3.234375 C 3.742188 -6.023438 7.367188 -8.40625 11.234375 -10.375 C 12.003906 -10.769531 12.71875 -11.160156 13.375 -11.546875 C 14.03125 -11.929688 14.40625 -12.191406 14.5 -12.328125 C 14.601562 -12.472656 14.691406 -12.898438 14.765625 -13.609375 C 14.835938 -14.378906 14.863281 -15.210938 14.84375 -16.109375 C 14.863281 -16.929688 14.820312 -17.898438 14.71875 -19.015625 C 14.695312 -20.078125 14.660156 -21.195312 14.609375 -22.375 C 14.429688 -24.476562 14.273438 -26.4375 14.140625 -28.25 C 13.953125 -29.988281 13.816406 -30.941406 13.734375 -31.109375 C 13.671875 -31.171875 13.398438 -30.988281 12.921875 -30.5625 C 12.453125 -30.144531 11.910156 -29.59375 11.296875 -28.90625 C 8.273438 -25.53125 5.519531 -23.226562 3.03125 -22 C 0.5625 -20.707031 -1.460938 -20.59375 -3.046875 -21.65625 C -3.648438 -22.113281 -4.050781 -22.507812 -4.25 -22.84375 C -4.425781 -23.15625 -4.578125 -23.75 -4.703125 -24.625 C -4.898438 -26.019531 -4.726562 -27.523438 -4.1875 -29.140625 C -3.59375 -30.816406 -2.644531 -32.515625 -1.34375 -34.234375 C -0.09375 -35.890625 1.226562 -37.203125 2.625 -38.171875 C 4.03125 -39.140625 5.503906 -39.789062 7.046875 -40.125 L 7.75 -40.21875 L 8.109375 -40.265625 L 8.265625 -40.296875 C 8.796875 -40.367188 9.242188 -40.367188 9.609375 -40.296875 C 9.960938 -40.234375 10.398438 -40.054688 10.921875 -39.765625 Z M 0.40625 -28.09375 C 0.164062 -27.289062 0.0195312 -26.679688 -0.03125 -26.265625 C -0.101562 -25.828125 -0.0195312 -25.628906 0.21875 -25.671875 C 0.269531 -25.671875 0.488281 -25.789062 0.875 -26.03125 C 1.25 -26.320312 1.707031 -26.625 2.25 -26.9375 C 3.269531 -27.664062 4.40625 -28.625 5.65625 -29.8125 C 6.96875 -31.050781 8.054688 -32.179688 8.921875 -33.203125 C 9.304688 -33.734375 9.546875 -34.117188 9.640625 -34.359375 C 9.722656 -34.609375 9.65625 -34.867188 9.4375 -35.140625 C 9.28125 -35.410156 9.082031 -35.554688 8.84375 -35.578125 C 8.539062 -35.660156 8.242188 -35.679688 7.953125 -35.640625 C 6.734375 -35.472656 5.347656 -34.59375 3.796875 -33 C 2.179688 -31.476562 1.050781 -29.84375 0.40625 -28.09375 Z M 9.71875 -4.109375 C 4.019531 -0.773438 -0.625 3.21875 -4.21875 7.875 C -7.832031 12.457031 -9.40625 16.429688 -8.9375 19.796875 C -8.800781 20.722656 -8.648438 21.382812 -8.484375 21.78125 C -8.304688 22.164062 -7.988281 22.539062 -7.53125 22.90625 C -6.644531 23.65625 -5.753906 24.085938 -4.859375 24.203125 C -4.003906 24.367188 -2.769531 24.3125 -1.15625 24.03125 C -0.125 23.820312 0.757812 23.582031 1.5 23.3125 C 2.164062 23.03125 2.90625 22.628906 3.71875 22.109375 C 5.601562 20.773438 7.316406 18.875 8.859375 16.40625 C 10.347656 13.894531 11.539062 10.976562 12.4375 7.65625 C 12.550781 7.175781 12.695312 6.535156 12.875 5.734375 C 12.988281 4.953125 13.132812 4.132812 13.3125 3.28125 C 13.613281 1.582031 13.882812 -0.113281 14.125 -1.8125 C 14.351562 -3.5625 14.507812 -4.789062 14.59375 -5.5 C 14.59375 -5.863281 14.578125 -6.128906 14.546875 -6.296875 C 14.523438 -6.472656 14.429688 -6.550781 14.265625 -6.53125 C 14.015625 -6.539062 13.535156 -6.347656 12.828125 -5.953125 C 12.171875 -5.578125 11.132812 -4.960938 9.71875 -4.109375 Z M 9.71875 -4.109375 "/></g></g></g><g fill="#41c1ba" fill-opacity="1"><g transform="translate(326.368517, 236.903249)"><g><path d="M -2.15625 -12.921875 C -3.164062 -13.304688 -3.851562 -14.1875 -4.21875 -15.5625 C -4.34375 -15.957031 -4.4375 -16.382812 -4.5 -16.84375 C -4.664062 -18 -4.679688 -19.421875 -4.546875 -21.109375 C -4.492188 -21.992188 -4.394531 -23.132812 -4.25 -24.53125 C -4.007812 -25.84375 -3.757812 -27.265625 -3.5 -28.796875 C -3.101562 -30.972656 -2.6875 -33.035156 -2.25 -34.984375 C -1.851562 -36.890625 -1.554688 -37.96875 -1.359375 -38.21875 C -0.972656 -38.75 -0.488281 -39.054688 0.09375 -39.140625 C 0.375 -39.179688 0.675781 -39.164062 1 -39.09375 C 1.976562 -38.875 2.535156 -38.273438 2.671875 -37.296875 C 2.691406 -37.117188 2.625 -36.515625 2.46875 -35.484375 C 2.320312 -34.460938 2.125 -33.367188 1.875 -32.203125 C 1.3125 -29.472656 0.859375 -26.773438 0.515625 -24.109375 C 0.109375 -21.515625 -0.0078125 -20.054688 0.15625 -19.734375 C 0.226562 -19.617188 0.507812 -19.945312 1 -20.71875 C 1.53125 -21.507812 2.125 -22.515625 2.78125 -23.734375 C 5.832031 -29.066406 8.226562 -32.914062 9.96875 -35.28125 C 11.644531 -37.59375 13.1875 -39.054688 14.59375 -39.671875 C 15.863281 -40.203125 17.015625 -40.15625 18.046875 -39.53125 C 19.023438 -38.90625 19.625 -37.804688 19.84375 -36.234375 C 19.894531 -35.898438 19.921875 -35.101562 19.921875 -33.84375 C 19.921875 -32.601562 19.863281 -31.296875 19.75 -29.921875 C 19.613281 -27.179688 19.59375 -25.253906 19.6875 -24.140625 C 19.78125 -23.085938 20 -22.585938 20.34375 -22.640625 C 20.863281 -22.710938 21.890625 -23.597656 23.421875 -25.296875 C 24.953125 -27.046875 26.335938 -28.753906 27.578125 -30.421875 C 27.878906 -30.859375 28.160156 -31.210938 28.421875 -31.484375 L 29.09375 -32.390625 C 30.070312 -33.359375 30.960938 -33.335938 31.765625 -32.328125 C 32.179688 -31.835938 32.425781 -31.335938 32.5 -30.828125 C 32.5625 -30.359375 32.476562 -29.898438 32.25 -29.453125 C 29.457031 -25.273438 27.203125 -22.414062 25.484375 -20.875 C 23.734375 -19.332031 22.492188 -18.421875 21.765625 -18.140625 C 20.929688 -17.835938 20.300781 -17.691406 19.875 -17.703125 C 19.539062 -17.648438 19.082031 -17.757812 18.5 -18.03125 C 17 -18.59375 16.007812 -19.722656 15.53125 -21.421875 C 15 -23.128906 14.835938 -25.773438 15.046875 -29.359375 C 15.109375 -30.546875 15.144531 -31.582031 15.15625 -32.46875 C 15.15625 -33.300781 15.085938 -33.765625 14.953125 -33.859375 C 14.753906 -34.003906 14.082031 -33.265625 12.9375 -31.640625 C 11.832031 -29.929688 10.425781 -27.539062 8.71875 -24.46875 C 5.9375 -19.46875 3.769531 -16.148438 2.21875 -14.515625 C 1.238281 -13.484375 0.285156 -12.898438 -0.640625 -12.765625 C -1.160156 -12.691406 -1.664062 -12.742188 -2.15625 -12.921875 Z M -2.15625 -12.921875 "/></g></g></g><g fill="#f2f1ec" fill-opacity="1"><g transform="translate(60.744497, 157.266079)"><g><path d="M 6.5 0 C 6.0625 0 5.703125 -0.140625 5.421875 -0.421875 C 5.140625 -0.703125 5 -1.0625 5 -1.5 L 5 -37.53125 C 5 -38 5.140625 -38.363281 5.421875 -38.625 C 5.703125 -38.894531 6.0625 -39.03125 6.5 -39.03125 L 15.5 -39.03125 C 19.257812 -39.03125 22.625 -38.195312 25.59375 -36.53125 C 28.5625 -34.875 30.878906 -32.566406 32.546875 -29.609375 C 34.210938 -26.660156 35.046875 -23.304688 35.046875 -19.546875 C 35.046875 -15.773438 34.210938 -12.40625 32.546875 -9.4375 C 30.878906 -6.476562 28.5625 -4.164062 25.59375 -2.5 C 22.625 -0.832031 19.257812 0 15.5 0 Z M 15.5 -2.703125 C 18.695312 -2.703125 21.546875 -3.425781 24.046875 -4.875 C 26.546875 -6.320312 28.503906 -8.328125 29.921875 -10.890625 C 31.335938 -13.460938 32.046875 -16.347656 32.046875 -19.546875 C 32.046875 -22.742188 31.335938 -25.613281 29.921875 -28.15625 C 28.503906 -30.707031 26.546875 -32.707031 24.046875 -34.15625 C 21.546875 -35.613281 18.695312 -36.34375 15.5 -36.34375 L 8 -36.34375 L 8 -2.703125 Z M 15.5 -2.703125 "/></g></g></g><g fill="#f2f1ec" fill-opacity="1"><g transform="translate(98.777496, 157.266079)"><g><path d="M 17 -27.640625 C 19.59375 -27.640625 21.957031 -27.03125 24.09375 -25.8125 C 26.226562 -24.601562 27.898438 -22.929688 29.109375 -20.796875 C 30.328125 -18.660156 30.9375 -16.273438 30.9375 -13.640625 L 30.9375 -1.5 C 30.9375 -1.0625 30.800781 -0.703125 30.53125 -0.421875 C 30.269531 -0.140625 29.90625 0 29.4375 0 C 29.007812 0 28.648438 -0.140625 28.359375 -0.421875 C 28.078125 -0.703125 27.9375 -1.0625 27.9375 -1.5 L 27.9375 -5.390625 C 26.84375 -3.628906 25.335938 -2.238281 23.421875 -1.21875 C 21.503906 -0.207031 19.363281 0.296875 17 0.296875 C 14.363281 0.296875 11.976562 -0.304688 9.84375 -1.515625 C 7.707031 -2.734375 6.03125 -4.410156 4.8125 -6.546875 C 3.601562 -8.679688 3 -11.046875 3 -13.640625 C 3 -16.273438 3.601562 -18.660156 4.8125 -20.796875 C 6.03125 -22.929688 7.707031 -24.601562 9.84375 -25.8125 C 11.976562 -27.03125 14.363281 -27.640625 17 -27.640625 Z M 17 -2.5 C 19.0625 -2.5 20.925781 -2.976562 22.59375 -3.9375 C 24.257812 -4.90625 25.566406 -6.238281 26.515625 -7.9375 C 27.460938 -9.644531 27.9375 -11.546875 27.9375 -13.640625 C 27.9375 -15.742188 27.460938 -17.644531 26.515625 -19.34375 C 25.566406 -21.039062 24.257812 -22.378906 22.59375 -23.359375 C 20.925781 -24.347656 19.0625 -24.84375 17 -24.84375 C 14.925781 -24.84375 13.054688 -24.347656 11.390625 -23.359375 C 9.722656 -22.378906 8.40625 -21.039062 7.4375 -19.34375 C 6.476562 -17.644531 6 -15.742188 6 -13.640625 C 6 -11.546875 6.476562 -9.644531 7.4375 -7.9375 C 8.40625 -6.238281 9.722656 -4.90625 11.390625 -3.9375 C 13.054688 -2.976562 14.925781 -2.5 17 -2.5 Z M 17 -2.5 "/></g></g></g><g fill="#f2f1ec" fill-opacity="1"><g transform="translate(132.712328, 157.266079)"><g><path d="M 25.984375 -27.296875 C 26.554688 -27.023438 26.84375 -26.585938 26.84375 -25.984375 C 26.84375 -25.753906 26.804688 -25.570312 26.734375 -25.4375 L 15.5 -1 C 15.164062 -0.300781 14.628906 0.046875 13.890625 0.046875 C 13.597656 0.046875 13.328125 -0.0390625 13.078125 -0.21875 C 12.828125 -0.40625 12.632812 -0.664062 12.5 -1 L 1.09375 -25.390625 C 1.03125 -25.523438 1 -25.707031 1 -25.9375 C 1 -26.539062 1.28125 -26.972656 1.84375 -27.234375 C 2.050781 -27.335938 2.253906 -27.390625 2.453125 -27.390625 C 3.015625 -27.390625 3.429688 -27.109375 3.703125 -26.546875 L 13.953125 -4.34375 L 24.046875 -26.59375 C 24.304688 -27.15625 24.738281 -27.4375 25.34375 -27.4375 C 25.570312 -27.4375 25.785156 -27.390625 25.984375 -27.296875 Z M 25.984375 -27.296875 "/></g></g></g><g fill="#f2f1ec" fill-opacity="1"><g transform="translate(160.549893, 157.266079)"><g><path d="M 15.84375 -27.59375 C 18.28125 -27.59375 20.453125 -27.015625 22.359375 -25.859375 C 24.273438 -24.710938 25.765625 -23.125 26.828125 -21.09375 C 27.898438 -19.0625 28.4375 -16.742188 28.4375 -14.140625 C 28.4375 -13.710938 28.300781 -13.375 28.03125 -13.125 C 27.769531 -12.875 27.421875 -12.75 26.984375 -12.75 L 6.046875 -12.75 C 6.148438 -10.78125 6.664062 -9.019531 7.59375 -7.46875 C 8.53125 -5.914062 9.78125 -4.707031 11.34375 -3.84375 C 12.914062 -2.976562 14.664062 -2.546875 16.59375 -2.546875 C 17.894531 -2.546875 19.203125 -2.769531 20.515625 -3.21875 C 21.835938 -3.675781 22.878906 -4.269531 23.640625 -5 C 23.972656 -5.257812 24.320312 -5.390625 24.6875 -5.390625 C 25.050781 -5.390625 25.351562 -5.289062 25.59375 -5.09375 C 25.957031 -4.800781 26.140625 -4.453125 26.140625 -4.046875 C 26.140625 -3.710938 25.988281 -3.394531 25.6875 -3.09375 C 24.625 -2.132812 23.234375 -1.335938 21.515625 -0.703125 C 19.796875 -0.0664062 18.15625 0.25 16.59375 0.25 C 13.957031 0.25 11.613281 -0.335938 9.5625 -1.515625 C 7.519531 -2.703125 5.914062 -4.351562 4.75 -6.46875 C 3.582031 -8.582031 3 -10.972656 3 -13.640625 C 3 -16.335938 3.539062 -18.742188 4.625 -20.859375 C 5.707031 -22.984375 7.222656 -24.632812 9.171875 -25.8125 C 11.117188 -27 13.34375 -27.59375 15.84375 -27.59375 Z M 15.84375 -24.796875 C 13.25 -24.796875 11.054688 -23.925781 9.265625 -22.1875 C 7.484375 -20.457031 6.425781 -18.175781 6.09375 -15.34375 L 25.546875 -15.34375 C 25.304688 -18.175781 24.300781 -20.457031 22.53125 -22.1875 C 20.769531 -23.925781 18.539062 -24.796875 15.84375 -24.796875 Z M 15.84375 -24.796875 "/></g></g></g><g fill="#f2f1ec" fill-opacity="1"><g transform="translate(190.986291, 157.266079)"><g/></g></g><g fill="#f2f1ec" fill-opacity="1"><g transform="translate(205.629742, 157.266079)"><g><path d="M 22.546875 0.5 C 19.046875 0.5 15.796875 -0.40625 12.796875 -2.21875 C 9.796875 -4.039062 7.410156 -6.492188 5.640625 -9.578125 C 3.878906 -12.660156 3 -15.984375 3 -19.546875 C 3 -23.109375 3.875 -26.421875 5.625 -29.484375 C 7.375 -32.554688 9.738281 -35 12.71875 -36.8125 C 15.695312 -38.625 18.972656 -39.53125 22.546875 -39.53125 C 27.210938 -39.53125 31.328125 -38.050781 34.890625 -35.09375 C 35.191406 -34.851562 35.34375 -34.519531 35.34375 -34.09375 C 35.34375 -33.6875 35.207031 -33.328125 34.9375 -33.015625 C 34.675781 -32.703125 34.3125 -32.546875 33.84375 -32.546875 C 33.476562 -32.546875 33.0625 -32.742188 32.59375 -33.140625 C 30.0625 -35.398438 26.710938 -36.53125 22.546875 -36.53125 C 19.609375 -36.53125 16.863281 -35.75 14.3125 -34.1875 C 11.769531 -32.625 9.75 -30.535156 8.25 -27.921875 C 6.75 -25.304688 6 -22.515625 6 -19.546875 C 6 -16.484375 6.738281 -13.640625 8.21875 -11.015625 C 9.707031 -8.398438 11.722656 -6.328125 14.265625 -4.796875 C 16.816406 -3.265625 19.578125 -2.5 22.546875 -2.5 C 26.472656 -2.5 29.921875 -3.710938 32.890625 -6.140625 C 33.117188 -6.304688 33.367188 -6.390625 33.640625 -6.390625 C 34.035156 -6.390625 34.390625 -6.238281 34.703125 -5.9375 C 35.023438 -5.644531 35.1875 -5.28125 35.1875 -4.84375 C 35.1875 -4.414062 35.070312 -4.066406 34.84375 -3.796875 C 31.976562 -0.929688 27.878906 0.5 22.546875 0.5 Z M 22.546875 0.5 "/></g></g></g><g fill="#f2f1ec" fill-opacity="1"><g transform="translate(243.962615, 157.266079)"><g><path d="M 16.09375 -27.640625 C 18.625 -27.640625 19.890625 -27.085938 19.890625 -25.984375 C 19.890625 -25.816406 19.875 -25.6875 19.84375 -25.59375 C 19.738281 -25.226562 19.578125 -24.96875 19.359375 -24.8125 C 19.148438 -24.664062 18.863281 -24.59375 18.5 -24.59375 C 18.195312 -24.59375 17.800781 -24.625 17.3125 -24.6875 C 16.832031 -24.757812 16.425781 -24.796875 16.09375 -24.796875 C 14.425781 -24.796875 12.941406 -24.441406 11.640625 -23.734375 C 10.347656 -23.035156 9.332031 -22.070312 8.59375 -20.84375 C 7.863281 -19.613281 7.5 -18.226562 7.5 -16.6875 L 7.5 -1.5 C 7.5 -1.0625 7.363281 -0.703125 7.09375 -0.421875 C 6.832031 -0.140625 6.46875 0 6 0 C 5.5625 0 5.203125 -0.140625 4.921875 -0.421875 C 4.640625 -0.703125 4.5 -1.0625 4.5 -1.5 L 4.5 -25.84375 C 4.5 -26.3125 4.640625 -26.675781 4.921875 -26.9375 C 5.203125 -27.207031 5.5625 -27.34375 6 -27.34375 C 6.46875 -27.34375 6.832031 -27.207031 7.09375 -26.9375 C 7.363281 -26.675781 7.5 -26.3125 7.5 -25.84375 L 7.5 -22.75 C 8.46875 -24.28125 9.703125 -25.476562 11.203125 -26.34375 C 12.703125 -27.207031 14.332031 -27.640625 16.09375 -27.640625 Z M 16.09375 -27.640625 "/></g></g></g><g fill="#f2f1ec" fill-opacity="1"><g transform="translate(265.852843, 157.266079)"><g><path d="M 15.84375 -27.59375 C 18.28125 -27.59375 20.453125 -27.015625 22.359375 -25.859375 C 24.273438 -24.710938 25.765625 -23.125 26.828125 -21.09375 C 27.898438 -19.0625 28.4375 -16.742188 28.4375 -14.140625 C 28.4375 -13.710938 28.300781 -13.375 28.03125 -13.125 C 27.769531 -12.875 27.421875 -12.75 26.984375 -12.75 L 6.046875 -12.75 C 6.148438 -10.78125 6.664062 -9.019531 7.59375 -7.46875 C 8.53125 -5.914062 9.78125 -4.707031 11.34375 -3.84375 C 12.914062 -2.976562 14.664062 -2.546875 16.59375 -2.546875 C 17.894531 -2.546875 19.203125 -2.769531 20.515625 -3.21875 C 21.835938 -3.675781 22.878906 -4.269531 23.640625 -5 C 23.972656 -5.257812 24.320312 -5.390625 24.6875 -5.390625 C 25.050781 -5.390625 25.351562 -5.289062 25.59375 -5.09375 C 25.957031 -4.800781 26.140625 -4.453125 26.140625 -4.046875 C 26.140625 -3.710938 25.988281 -3.394531 25.6875 -3.09375 C 24.625 -2.132812 23.234375 -1.335938 21.515625 -0.703125 C 19.796875 -0.0664062 18.15625 0.25 16.59375 0.25 C 13.957031 0.25 11.613281 -0.335938 9.5625 -1.515625 C 7.519531 -2.703125 5.914062 -4.351562 4.75 -6.46875 C 3.582031 -8.582031 3 -10.972656 3 -13.640625 C 3 -16.335938 3.539062 -18.742188 4.625 -20.859375 C 5.707031 -22.984375 7.222656 -24.632812 9.171875 -25.8125 C 11.117188 -27 13.34375 -27.59375 15.84375 -27.59375 Z M 15.84375 -24.796875 C 13.25 -24.796875 11.054688 -23.925781 9.265625 -22.1875 C 7.484375 -20.457031 6.425781 -18.175781 6.09375 -15.34375 L 25.546875 -15.34375 C 25.304688 -18.175781 24.300781 -20.457031 22.53125 -22.1875 C 20.769531 -23.925781 18.539062 -24.796875 15.84375 -24.796875 Z M 15.84375 -24.796875 "/></g></g></g><g fill="#f2f1ec" fill-opacity="1"><g transform="translate(296.289242, 157.266079)"><g><path d="M 17 -27.640625 C 19.59375 -27.640625 21.957031 -27.03125 24.09375 -25.8125 C 26.226562 -24.601562 27.898438 -22.929688 29.109375 -20.796875 C 30.328125 -18.660156 30.9375 -16.273438 30.9375 -13.640625 L 30.9375 -1.5 C 30.9375 -1.0625 30.800781 -0.703125 30.53125 -0.421875 C 30.269531 -0.140625 29.90625 0 29.4375 0 C 29.007812 0 28.648438 -0.140625 28.359375 -0.421875 C 28.078125 -0.703125 27.9375 -1.0625 27.9375 -1.5 L 27.9375 -5.390625 C 26.84375 -3.628906 25.335938 -2.238281 23.421875 -1.21875 C 21.503906 -0.207031 19.363281 0.296875 17 0.296875 C 14.363281 0.296875 11.976562 -0.304688 9.84375 -1.515625 C 7.707031 -2.734375 6.03125 -4.410156 4.8125 -6.546875 C 3.601562 -8.679688 3 -11.046875 3 -13.640625 C 3 -16.273438 3.601562 -18.660156 4.8125 -20.796875 C 6.03125 -22.929688 7.707031 -24.601562 9.84375 -25.8125 C 11.976562 -27.03125 14.363281 -27.640625 17 -27.640625 Z M 17 -2.5 C 19.0625 -2.5 20.925781 -2.976562 22.59375 -3.9375 C 24.257812 -4.90625 25.566406 -6.238281 26.515625 -7.9375 C 27.460938 -9.644531 27.9375 -11.546875 27.9375 -13.640625 C 27.9375 -15.742188 27.460938 -17.644531 26.515625 -19.34375 C 25.566406 -21.039062 24.257812 -22.378906 22.59375 -23.359375 C 20.925781 -24.347656 19.0625 -24.84375 17 -24.84375 C 14.925781 -24.84375 13.054688 -24.347656 11.390625 -23.359375 C 9.722656 -22.378906 8.40625 -21.039062 7.4375 -19.34375 C 6.476562 -17.644531 6 -15.742188 6 -13.640625 C 6 -11.546875 6.476562 -9.644531 7.4375 -7.9375 C 8.40625 -6.238281 9.722656 -4.90625 11.390625 -3.9375 C 13.054688 -2.976562 14.925781 -2.5 17 -2.5 Z M 17 -2.5 "/></g></g></g><g fill="#f2f1ec" fill-opacity="1"><g transform="translate(330.224085, 157.266079)"><g><path d="M 17 -27.6875 C 19.425781 -27.6875 21.597656 -27.1875 23.515625 -26.1875 C 25.429688 -25.1875 26.929688 -23.726562 28.015625 -21.8125 C 29.097656 -19.894531 29.640625 -17.609375 29.640625 -14.953125 L 29.640625 -1.5 C 29.640625 -1.0625 29.5 -0.703125 29.21875 -0.421875 C 28.9375 -0.140625 28.578125 0 28.140625 0 C 27.703125 0 27.34375 -0.140625 27.0625 -0.421875 C 26.78125 -0.703125 26.640625 -1.0625 26.640625 -1.5 L 26.640625 -14.953125 C 26.640625 -18.109375 25.75 -20.519531 23.96875 -22.1875 C 22.1875 -23.851562 19.863281 -24.6875 17 -24.6875 C 15.226562 -24.6875 13.617188 -24.34375 12.171875 -23.65625 C 10.722656 -22.976562 9.582031 -22.03125 8.75 -20.8125 C 7.914062 -19.601562 7.5 -18.265625 7.5 -16.796875 L 7.5 -1.5 C 7.5 -1.0625 7.363281 -0.703125 7.09375 -0.421875 C 6.832031 -0.140625 6.46875 0 6 0 C 5.5625 0 5.203125 -0.140625 4.921875 -0.421875 C 4.640625 -0.703125 4.5 -1.0625 4.5 -1.5 L 4.5 -25.84375 C 4.5 -26.3125 4.640625 -26.675781 4.921875 -26.9375 C 5.203125 -27.207031 5.5625 -27.34375 6 -27.34375 C 6.46875 -27.34375 6.832031 -27.207031 7.09375 -26.9375 C 7.363281 -26.675781 7.5 -26.3125 7.5 -25.84375 L 7.5 -23.25 C 8.632812 -24.644531 10.015625 -25.734375 11.640625 -26.515625 C 13.273438 -27.296875 15.0625 -27.6875 17 -27.6875 Z M 17 -27.6875 "/></g></g></g></svg>