<svg xmlns="http://www.w3.org/2000/svg" xmlns:xlink="http://www.w3.org/1999/xlink" width="523" zoomAndPan="magnify" viewBox="0 0 392.25 101.249998" height="135" preserveAspectRatio="xMidYMid meet" version="1.0"><defs><g/></defs><g fill="#41c1ba" fill-opacity="1"><g transform="translate(249.593245, 65.078298)"><g><path d="M 28.453125 -41.765625 C 30.253906 -40.867188 31.640625 -39.46875 32.609375 -37.5625 C 33.585938 -35.6875 34.078125 -33.410156 34.078125 -30.734375 C 34.078125 -28.867188 33.867188 -27.066406 33.453125 -25.328125 C 32.992188 -23.597656 32.265625 -21.726562 31.265625 -19.71875 C 29.316406 -15.800781 26.835938 -12.28125 23.828125 -9.15625 C 20.804688 -6 17.769531 -3.796875 14.71875 -2.546875 C 14.03125 -2.234375 13.441406 -2.023438 12.953125 -1.921875 C 12.460938 -1.816406 11.800781 -1.75 10.96875 -1.71875 C 10.070312 -1.6875 9.453125 -1.6875 9.109375 -1.71875 C 8.753906 -1.75 8.367188 -1.882812 7.953125 -2.125 C 7.398438 -2.40625 6.96875 -2.738281 6.65625 -3.125 L 6.609375 -3.171875 C 6.296875 -3.585938 6.050781 -4.125 5.875 -4.78125 C 5.425781 -6.476562 6.171875 -8.523438 8.109375 -10.921875 C 10.015625 -13.273438 12.878906 -15.632812 16.703125 -18 C 17.222656 -18.3125 17.707031 -18.585938 18.15625 -18.828125 C 18.632812 -19.035156 18.945312 -19.140625 19.09375 -19.140625 C 19.644531 -19.140625 20.039062 -18.863281 20.28125 -18.3125 C 20.488281 -17.789062 20.382812 -17.335938 19.96875 -16.953125 C 19.863281 -16.890625 19.5 -16.628906 18.875 -16.171875 C 18.289062 -15.753906 17.617188 -15.304688 16.859375 -14.828125 C 14.460938 -13.265625 12.46875 -11.632812 10.875 -9.9375 C 9.3125 -8.238281 8.53125 -6.867188 8.53125 -5.828125 C 8.5 -5.203125 8.65625 -4.800781 9 -4.625 C 9.34375 -4.457031 10.019531 -4.390625 11.03125 -4.421875 C 12.65625 -4.523438 14.472656 -5.234375 16.484375 -6.546875 C 18.492188 -7.835938 20.472656 -9.519531 22.421875 -11.59375 C 23.460938 -12.707031 24.453125 -13.90625 25.390625 -15.1875 C 26.316406 -16.507812 27.179688 -17.863281 27.984375 -19.25 C 29.128906 -21.289062 29.976562 -23.25 30.53125 -25.125 C 31.082031 -26.957031 31.359375 -28.78125 31.359375 -30.59375 C 31.359375 -32.53125 31.082031 -34.207031 30.53125 -35.625 C 29.976562 -37.050781 29.164062 -38.144531 28.09375 -38.90625 C 26.738281 -39.914062 24.898438 -40.160156 22.578125 -39.640625 C 20.285156 -39.148438 17.734375 -37.96875 14.921875 -36.09375 C 12.671875 -34.601562 10.554688 -32.851562 8.578125 -30.84375 C 6.566406 -28.832031 4.226562 -26.078125 1.5625 -22.578125 C 1.113281 -21.953125 0.679688 -21.414062 0.265625 -20.96875 C -0.117188 -20.476562 -0.363281 -20.195312 -0.46875 -20.125 C -0.882812 -19.78125 -1.335938 -19.726562 -1.828125 -19.96875 C -2.304688 -20.175781 -2.546875 -20.5625 -2.546875 -21.125 C -2.546875 -21.394531 -2.078125 -22.171875 -1.140625 -23.453125 C -0.203125 -24.742188 1.0625 -26.359375 2.65625 -28.296875 C 5.5 -31.734375 8.425781 -34.613281 11.4375 -36.9375 C 14.457031 -39.257812 17.441406 -40.90625 20.390625 -41.875 C 21.296875 -42.1875 22.007812 -42.378906 22.53125 -42.453125 C 23.082031 -42.554688 23.789062 -42.609375 24.65625 -42.609375 C 25.625 -42.609375 26.300781 -42.570312 26.6875 -42.5 C 27.03125 -42.425781 27.617188 -42.179688 28.453125 -41.765625 Z M 12.953125 -31.625 C 13.265625 -31.625 13.523438 -31.535156 13.734375 -31.359375 C 13.734375 -31.328125 13.75 -31.3125 13.78125 -31.3125 C 13.988281 -31.101562 14.09375 -30.8125 14.09375 -30.4375 C 14.09375 -30.289062 13.726562 -29.332031 13 -27.5625 C 12.269531 -25.800781 11.40625 -23.757812 10.40625 -21.4375 C 9.75 -19.90625 9.003906 -18.171875 8.171875 -16.234375 C 7.335938 -14.285156 6.539062 -12.410156 5.78125 -10.609375 C 5.363281 -9.640625 4.960938 -8.703125 4.578125 -7.796875 C 4.191406 -6.898438 3.84375 -6.101562 3.53125 -5.40625 C 2.632812 -3.21875 1.835938 -1.378906 1.140625 0.109375 C 0.453125 1.597656 0.0351562 2.394531 -0.109375 2.5 C -0.378906 2.738281 -0.617188 2.859375 -0.828125 2.859375 C -1.003906 2.890625 -1.265625 2.785156 -1.609375 2.546875 C -1.753906 2.441406 -1.878906 2.300781 -1.984375 2.125 C -2.046875 1.925781 -2.078125 1.738281 -2.078125 1.5625 C -2.078125 1.25 -1.28125 -0.832031 0.3125 -4.6875 C 1.90625 -8.53125 4.382812 -14.351562 7.75 -22.15625 C 8.40625 -23.6875 8.976562 -24.988281 9.46875 -26.0625 C 9.914062 -27.132812 10.296875 -28.019531 10.609375 -28.71875 C 11.203125 -30.03125 11.601562 -30.84375 11.8125 -31.15625 C 12.050781 -31.46875 12.289062 -31.625 12.53125 -31.625 Z M 12.953125 -31.625 "/></g></g></g><g fill="#41c1ba" fill-opacity="1"><g transform="translate(281.572971, 65.078298)"><g><path d="M 7.015625 -20.859375 C 7.578125 -20.648438 7.992188 -20.335938 8.265625 -19.921875 C 8.546875 -19.503906 8.6875 -18.953125 8.6875 -18.265625 C 8.6875 -16.972656 8.203125 -15.753906 7.234375 -14.609375 C 6.296875 -13.429688 4.941406 -12.410156 3.171875 -11.546875 C 2.722656 -11.304688 2.03125 -10.957031 1.09375 -10.5 C 0.957031 -10.050781 0.941406 -9.65625 1.046875 -9.3125 C 1.148438 -8.925781 1.304688 -8.613281 1.515625 -8.375 C 1.648438 -8.164062 1.875 -8.046875 2.1875 -8.015625 C 2.457031 -7.941406 2.851562 -7.921875 3.375 -7.953125 C 4.625 -8.054688 6.132812 -8.664062 7.90625 -9.78125 C 9.675781 -10.882812 11.65625 -12.476562 13.84375 -14.5625 C 14.457031 -15.1875 15.023438 -15.722656 15.546875 -16.171875 C 16.066406 -16.628906 16.378906 -16.875 16.484375 -16.90625 C 16.835938 -17.007812 17.1875 -16.921875 17.53125 -16.640625 C 17.84375 -16.328125 18 -15.960938 18 -15.546875 C 18 -15.234375 17.859375 -14.90625 17.578125 -14.5625 C 17.304688 -14.21875 16.664062 -13.5625 15.65625 -12.59375 C 12.945312 -9.882812 10.347656 -7.867188 7.859375 -6.546875 C 5.910156 -5.515625 4.242188 -5 2.859375 -5 C 2.472656 -5 2.09375 -5.050781 1.71875 -5.15625 C 0.394531 -5.5 -0.554688 -6.257812 -1.140625 -7.4375 C -1.523438 -8.195312 -1.71875 -9.066406 -1.71875 -10.046875 C -1.71875 -10.597656 -1.664062 -11.1875 -1.5625 -11.8125 C -1.070312 -14.164062 -0.03125 -16.265625 1.5625 -18.109375 C 3.15625 -19.972656 4.679688 -20.925781 6.140625 -20.96875 L 6.609375 -20.96875 Z M 2.859375 -15.34375 C 2.515625 -14.75 2.34375 -14.40625 2.34375 -14.3125 C 2.375 -14.207031 2.613281 -14.273438 3.0625 -14.515625 C 3.832031 -14.890625 4.582031 -15.582031 5.3125 -16.59375 C 6.070312 -17.601562 6.207031 -18.109375 5.71875 -18.109375 C 5.550781 -18.109375 5.101562 -17.757812 4.375 -17.0625 C 3.675781 -16.363281 3.171875 -15.789062 2.859375 -15.34375 Z M 2.859375 -15.34375 "/></g></g></g><g fill="#41c1ba" fill-opacity="1"><g transform="translate(297.536833, 65.078298)"><g><path d="M 8.171875 -22.671875 C 8.410156 -22.265625 8.425781 -21.882812 8.21875 -21.53125 C 7.976562 -21.1875 7.25 -20.492188 6.03125 -19.453125 C 4.4375 -18.097656 3.414062 -16.898438 2.96875 -15.859375 C 2.507812 -14.785156 2.5625 -13.75 3.125 -12.75 C 3.289062 -12.46875 3.476562 -12.207031 3.6875 -11.96875 C 3.894531 -11.6875 4.070312 -11.507812 4.21875 -11.4375 C 4.53125 -11.269531 4.804688 -11.253906 5.046875 -11.390625 C 5.328125 -11.492188 6.4375 -12.171875 8.375 -13.421875 C 10.175781 -14.566406 11.738281 -15.46875 13.0625 -16.125 C 14.375 -16.78125 15.253906 -17.09375 15.703125 -17.0625 C 16.117188 -16.988281 16.453125 -16.78125 16.703125 -16.4375 C 16.835938 -16.195312 16.90625 -15.972656 16.90625 -15.765625 C 16.90625 -15.617188 16.867188 -15.476562 16.796875 -15.34375 C 16.734375 -15.207031 16.472656 -14.984375 16.015625 -14.671875 C 15.566406 -14.359375 15.046875 -14.0625 14.453125 -13.78125 C 13.585938 -13.332031 12.515625 -12.707031 11.234375 -11.90625 C 9.984375 -11.144531 8.546875 -10.242188 6.921875 -9.203125 C 6.710938 -9.066406 6.609375 -8.910156 6.609375 -8.734375 C 6.566406 -8.566406 6.648438 -8.238281 6.859375 -7.75 C 7.066406 -7.15625 7.101562 -6.410156 6.96875 -5.515625 C 6.863281 -4.609375 6.617188 -3.894531 6.234375 -3.375 C 5.890625 -2.851562 5.40625 -2.351562 4.78125 -1.875 C 4.125 -1.351562 3.535156 -0.988281 3.015625 -0.78125 C 2.628906 -0.644531 2.234375 -0.578125 1.828125 -0.578125 C 1.617188 -0.578125 1.410156 -0.59375 1.203125 -0.625 C 0.535156 -0.726562 0.046875 -0.9375 -0.265625 -1.25 C -0.816406 -1.769531 -1.09375 -2.410156 -1.09375 -3.171875 C -1.09375 -3.453125 -1.039062 -3.765625 -0.9375 -4.109375 C -0.65625 -5.285156 0.109375 -6.566406 1.359375 -7.953125 C 1.597656 -8.234375 1.804688 -8.492188 1.984375 -8.734375 C 2.148438 -8.941406 2.234375 -9.066406 2.234375 -9.109375 C 2.265625 -9.140625 2.195312 -9.296875 2.03125 -9.578125 C 1.851562 -9.816406 1.644531 -10.09375 1.40625 -10.40625 C 0.75 -11.269531 0.316406 -12.050781 0.109375 -12.75 C -0.140625 -13.476562 -0.210938 -14.238281 -0.109375 -15.03125 C 0.0351562 -16.175781 0.539062 -17.351562 1.40625 -18.5625 C 2.269531 -19.78125 3.535156 -21.03125 5.203125 -22.3125 C 5.691406 -22.695312 6.109375 -22.992188 6.453125 -23.203125 C 6.722656 -23.367188 6.984375 -23.453125 7.234375 -23.453125 L 7.28125 -23.453125 C 7.457031 -23.421875 7.613281 -23.335938 7.75 -23.203125 C 7.882812 -23.097656 8.023438 -22.921875 8.171875 -22.671875 Z M 1.875 -3.796875 C 1.875 -3.585938 1.890625 -3.445312 1.921875 -3.375 C 1.960938 -3.34375 2.066406 -3.363281 2.234375 -3.4375 C 2.367188 -3.46875 2.523438 -3.550781 2.703125 -3.6875 C 2.910156 -3.832031 3.082031 -3.972656 3.21875 -4.109375 C 3.707031 -4.492188 4.039062 -5.015625 4.21875 -5.671875 C 4.425781 -6.328125 4.375 -6.671875 4.0625 -6.703125 C 3.882812 -6.703125 3.484375 -6.289062 2.859375 -5.46875 C 2.234375 -4.632812 1.90625 -4.078125 1.875 -3.796875 Z M 1.875 -3.796875 "/></g></g></g><g fill="#41c1ba" fill-opacity="1"><g transform="translate(312.460705, 65.078298)"><g><path d="M -0.46875 -4.6875 C -1.40625 -5.269531 -1.875 -6.410156 -1.875 -8.109375 C -1.875 -8.390625 -1.859375 -8.722656 -1.828125 -9.109375 C -1.617188 -11.328125 -0.765625 -14.394531 0.734375 -18.3125 C 1.078125 -19.175781 1.335938 -19.765625 1.515625 -20.078125 C 1.722656 -20.390625 1.925781 -20.582031 2.125 -20.65625 C 2.40625 -20.757812 2.6875 -20.773438 2.96875 -20.703125 L 3.28125 -20.59375 C 3.625 -20.382812 3.832031 -20.09375 3.90625 -19.71875 C 3.9375 -19.539062 3.863281 -19.15625 3.6875 -18.5625 C 3.519531 -17.976562 3.296875 -17.269531 3.015625 -16.4375 C 2.359375 -14.707031 1.875 -13.21875 1.5625 -11.96875 C 1.21875 -10.75 1.007812 -9.671875 0.9375 -8.734375 C 0.90625 -8.148438 0.90625 -7.769531 0.9375 -7.59375 C 0.96875 -7.382812 1.054688 -7.28125 1.203125 -7.28125 C 1.410156 -7.25 1.910156 -7.648438 2.703125 -8.484375 C 3.535156 -9.316406 4.40625 -10.25 5.3125 -11.28125 C 5.789062 -11.875 6.253906 -12.429688 6.703125 -12.953125 C 7.160156 -13.503906 7.5625 -14.003906 7.90625 -14.453125 C 8.425781 -15.148438 8.910156 -15.757812 9.359375 -16.28125 C 9.816406 -16.800781 10.078125 -17.078125 10.140625 -17.109375 C 10.734375 -17.285156 11.21875 -17.128906 11.59375 -16.640625 C 11.800781 -16.367188 11.90625 -16.09375 11.90625 -15.8125 C 11.90625 -15.570312 11.851562 -15.328125 11.75 -15.078125 C 11.582031 -14.804688 11.289062 -14.375 10.875 -13.78125 C 10.488281 -13.226562 10.019531 -12.601562 9.46875 -11.90625 C 8.707031 -10.863281 7.890625 -9.828125 7.015625 -8.796875 C 6.148438 -7.753906 5.476562 -7.023438 5 -6.609375 C 3.8125 -5.566406 2.769531 -4.890625 1.875 -4.578125 C 0.96875 -4.265625 0.1875 -4.300781 -0.46875 -4.6875 Z M 3.28125 -23.046875 C 2.96875 -23.390625 2.84375 -23.753906 2.90625 -24.140625 C 3.007812 -24.515625 3.289062 -24.828125 3.75 -25.078125 C 4.164062 -25.316406 4.582031 -25.296875 5 -25.015625 C 5.414062 -24.742188 5.625 -24.347656 5.625 -23.828125 C 5.625 -23.304688 5.328125 -22.941406 4.734375 -22.734375 C 4.453125 -22.628906 4.191406 -22.59375 3.953125 -22.625 C 3.710938 -22.695312 3.488281 -22.835938 3.28125 -23.046875 Z M 3.28125 -23.046875 "/></g></g></g><g fill="#41c1ba" fill-opacity="1"><g transform="translate(322.236621, 65.078298)"><g><path d="M 9.671875 -22.421875 C 10.023438 -22.179688 10.300781 -22.039062 10.5 -22 C 10.75 -21.9375 11.046875 -21.921875 11.390625 -21.953125 C 11.734375 -22.023438 11.992188 -22.023438 12.171875 -21.953125 C 12.347656 -21.921875 12.554688 -21.765625 12.796875 -21.484375 C 13.035156 -21.242188 13.191406 -20.96875 13.265625 -20.65625 C 13.335938 -20.34375 13.390625 -19.664062 13.421875 -18.625 L 13.421875 -16.078125 C 13.390625 -15.097656 13.335938 -14.09375 13.265625 -13.0625 C 13.128906 -11.113281 12.921875 -9.097656 12.640625 -7.015625 C 12.359375 -4.941406 12.046875 -3.140625 11.703125 -1.609375 C 10.554688 3.523438 8.992188 7.613281 7.015625 10.65625 C 5.003906 13.675781 2.613281 15.601562 -0.15625 16.4375 C -0.78125 16.613281 -1.679688 16.71875 -2.859375 16.75 L -3.4375 16.75 C -4.332031 16.75 -4.988281 16.679688 -5.40625 16.546875 C -6.3125 16.265625 -7.128906 15.796875 -7.859375 15.140625 C -8.585938 14.484375 -9.085938 13.753906 -9.359375 12.953125 C -9.609375 12.253906 -9.734375 11.5625 -9.734375 10.875 C -9.734375 9.9375 -9.539062 9 -9.15625 8.0625 C -8.457031 6.332031 -7.175781 4.492188 -5.3125 2.546875 C -3.707031 0.953125 -1.78125 -0.519531 0.46875 -1.875 C 2.6875 -3.226562 5.007812 -4.320312 7.4375 -5.15625 C 7.925781 -5.320312 8.378906 -5.492188 8.796875 -5.671875 C 9.210938 -5.847656 9.453125 -5.96875 9.515625 -6.03125 C 9.585938 -6.101562 9.675781 -6.347656 9.78125 -6.765625 C 9.882812 -7.210938 9.972656 -7.695312 10.046875 -8.21875 C 10.109375 -8.707031 10.160156 -9.28125 10.203125 -9.9375 C 10.265625 -10.5625 10.332031 -11.21875 10.40625 -11.90625 C 10.46875 -13.15625 10.535156 -14.316406 10.609375 -15.390625 C 10.640625 -16.429688 10.640625 -17.003906 10.609375 -17.109375 C 10.578125 -17.148438 10.40625 -17.066406 10.09375 -16.859375 C 9.78125 -16.648438 9.414062 -16.367188 9 -16.015625 C 6.957031 -14.285156 5.15625 -13.160156 3.59375 -12.640625 C 2.03125 -12.085938 0.832031 -12.191406 0 -12.953125 C -0.3125 -13.265625 -0.519531 -13.523438 -0.625 -13.734375 C -0.695312 -13.941406 -0.734375 -14.304688 -0.734375 -14.828125 C -0.734375 -15.660156 -0.503906 -16.523438 -0.046875 -17.421875 C 0.429688 -18.359375 1.125 -19.28125 2.03125 -20.1875 C 2.894531 -21.050781 3.78125 -21.707031 4.6875 -22.15625 C 5.582031 -22.601562 6.5 -22.863281 7.4375 -22.9375 L 8.171875 -22.9375 C 8.484375 -22.9375 8.742188 -22.898438 8.953125 -22.828125 C 9.160156 -22.765625 9.398438 -22.628906 9.671875 -22.421875 Z M 2.546875 -16.4375 C 2.335938 -15.988281 2.195312 -15.640625 2.125 -15.390625 C 2.0625 -15.148438 2.097656 -15.03125 2.234375 -15.03125 C 2.265625 -15.03125 2.40625 -15.082031 2.65625 -15.1875 C 2.894531 -15.320312 3.1875 -15.460938 3.53125 -15.609375 C 4.195312 -15.953125 4.945312 -16.421875 5.78125 -17.015625 C 6.644531 -17.640625 7.367188 -18.207031 7.953125 -18.71875 C 8.234375 -19 8.410156 -19.207031 8.484375 -19.34375 C 8.546875 -19.488281 8.523438 -19.644531 8.421875 -19.8125 C 8.359375 -19.988281 8.253906 -20.09375 8.109375 -20.125 C 7.941406 -20.195312 7.769531 -20.234375 7.59375 -20.234375 C 6.863281 -20.234375 5.976562 -19.832031 4.9375 -19.03125 C 3.863281 -18.269531 3.066406 -17.40625 2.546875 -16.4375 Z M 6.03125 -1.609375 C 2.425781 -0.117188 -0.625 1.835938 -3.125 4.265625 C -5.613281 6.660156 -6.859375 8.863281 -6.859375 10.875 C -6.859375 11.425781 -6.828125 11.820312 -6.765625 12.0625 C -6.691406 12.3125 -6.535156 12.554688 -6.296875 12.796875 C -5.847656 13.316406 -5.363281 13.644531 -4.84375 13.78125 C -4.351562 13.957031 -3.625 14.03125 -2.65625 14 C -2.03125 13.957031 -1.492188 13.882812 -1.046875 13.78125 C -0.628906 13.675781 -0.160156 13.503906 0.359375 13.265625 C 1.578125 12.640625 2.738281 11.664062 3.84375 10.34375 C 4.925781 9 5.863281 7.390625 6.65625 5.515625 C 6.757812 5.234375 6.898438 4.867188 7.078125 4.421875 C 7.210938 3.972656 7.367188 3.503906 7.546875 3.015625 C 7.859375 2.046875 8.148438 1.078125 8.421875 0.109375 C 8.703125 -0.898438 8.894531 -1.613281 9 -2.03125 C 9.03125 -2.238281 9.046875 -2.394531 9.046875 -2.5 C 9.046875 -2.601562 8.992188 -2.65625 8.890625 -2.65625 C 8.753906 -2.6875 8.460938 -2.613281 8.015625 -2.4375 C 7.597656 -2.269531 6.9375 -1.992188 6.03125 -1.609375 Z M 6.03125 -1.609375 "/></g></g></g><g fill="#41c1ba" fill-opacity="1"><g transform="translate(337.576489, 65.078298)"><g><path d="M -0.203125 -7.75 C -0.765625 -8.0625 -1.097656 -8.632812 -1.203125 -9.46875 C -1.234375 -9.707031 -1.25 -9.96875 -1.25 -10.25 C -1.25 -10.9375 -1.144531 -11.769531 -0.9375 -12.75 C -0.832031 -13.269531 -0.675781 -13.925781 -0.46875 -14.71875 C -0.226562 -15.476562 0.03125 -16.296875 0.3125 -17.171875 C 0.726562 -18.410156 1.144531 -19.585938 1.5625 -20.703125 C 1.9375 -21.773438 2.195312 -22.382812 2.34375 -22.53125 C 2.613281 -22.800781 2.925781 -22.9375 3.28125 -22.9375 C 3.445312 -22.9375 3.617188 -22.898438 3.796875 -22.828125 C 4.347656 -22.628906 4.625 -22.234375 4.625 -21.640625 C 4.625 -21.535156 4.539062 -21.1875 4.375 -20.59375 C 4.195312 -20.007812 3.988281 -19.382812 3.75 -18.71875 C 3.1875 -17.164062 2.695312 -15.625 2.28125 -14.09375 C 1.832031 -12.601562 1.644531 -11.753906 1.71875 -11.546875 C 1.75 -11.472656 1.9375 -11.644531 2.28125 -12.0625 C 2.664062 -12.476562 3.101562 -13.019531 3.59375 -13.6875 C 5.8125 -16.5625 7.523438 -18.625 8.734375 -19.875 C 9.910156 -21.082031 10.9375 -21.8125 11.8125 -22.0625 C 12.601562 -22.269531 13.28125 -22.144531 13.84375 -21.6875 C 14.351562 -21.238281 14.609375 -20.546875 14.609375 -19.609375 C 14.609375 -19.398438 14.554688 -18.929688 14.453125 -18.203125 C 14.359375 -17.472656 14.222656 -16.710938 14.046875 -15.921875 C 13.734375 -14.328125 13.5625 -13.195312 13.53125 -12.53125 C 13.488281 -11.90625 13.570312 -11.59375 13.78125 -11.59375 C 14.09375 -11.59375 14.769531 -12.03125 15.8125 -12.90625 C 16.851562 -13.800781 17.804688 -14.679688 18.671875 -15.546875 C 18.878906 -15.796875 19.070312 -15.988281 19.25 -16.125 L 19.71875 -16.59375 C 20.375 -17.082031 20.894531 -16.992188 21.28125 -16.328125 C 21.488281 -16.015625 21.59375 -15.703125 21.59375 -15.390625 C 21.59375 -15.117188 21.503906 -14.859375 21.328125 -14.609375 C 19.347656 -12.390625 17.785156 -10.898438 16.640625 -10.140625 C 15.492188 -9.378906 14.695312 -8.945312 14.25 -8.84375 C 13.726562 -8.738281 13.347656 -8.703125 13.109375 -8.734375 C 12.898438 -8.734375 12.640625 -8.835938 12.328125 -9.046875 C 11.492188 -9.503906 11.007812 -10.25 10.875 -11.28125 C 10.695312 -12.320312 10.816406 -13.882812 11.234375 -15.96875 C 11.367188 -16.664062 11.472656 -17.273438 11.546875 -17.796875 C 11.617188 -18.273438 11.617188 -18.550781 11.546875 -18.625 C 11.441406 -18.726562 10.992188 -18.347656 10.203125 -17.484375 C 9.398438 -16.578125 8.375 -15.289062 7.125 -13.625 C 5.082031 -10.925781 3.539062 -9.160156 2.5 -8.328125 C 1.84375 -7.804688 1.234375 -7.546875 0.671875 -7.546875 C 0.359375 -7.546875 0.0664062 -7.613281 -0.203125 -7.75 Z M -0.203125 -7.75 "/></g></g></g><g fill="#113230" fill-opacity="1"><g transform="translate(22.498482, 61.25594)"><g><path d="M 4.5625 0 C 4.257812 0 4.007812 -0.0976562 3.8125 -0.296875 C 3.613281 -0.492188 3.515625 -0.742188 3.515625 -1.046875 L 3.515625 -26.359375 C 3.515625 -26.691406 3.613281 -26.953125 3.8125 -27.140625 C 4.007812 -27.328125 4.257812 -27.421875 4.5625 -27.421875 L 10.890625 -27.421875 C 13.523438 -27.421875 15.882812 -26.832031 17.96875 -25.65625 C 20.050781 -24.488281 21.675781 -22.867188 22.84375 -20.796875 C 24.019531 -18.722656 24.609375 -16.367188 24.609375 -13.734375 C 24.609375 -11.085938 24.019531 -8.722656 22.84375 -6.640625 C 21.675781 -4.554688 20.050781 -2.925781 17.96875 -1.75 C 15.882812 -0.582031 13.523438 0 10.890625 0 Z M 10.890625 -1.890625 C 13.128906 -1.890625 15.125 -2.398438 16.875 -3.421875 C 18.632812 -4.441406 20.007812 -5.851562 21 -7.65625 C 22 -9.457031 22.5 -11.484375 22.5 -13.734375 C 22.5 -15.972656 22 -17.988281 21 -19.78125 C 20.007812 -21.570312 18.632812 -22.976562 16.875 -24 C 15.125 -25.019531 13.128906 -25.53125 10.890625 -25.53125 L 5.625 -25.53125 L 5.625 -1.890625 Z M 10.890625 -1.890625 "/></g></g></g><g fill="#113230" fill-opacity="1"><g transform="translate(49.213149, 61.25594)"><g><path d="M 11.9375 -19.421875 C 13.757812 -19.421875 15.421875 -18.992188 16.921875 -18.140625 C 18.421875 -17.285156 19.597656 -16.109375 20.453125 -14.609375 C 21.304688 -13.109375 21.734375 -11.429688 21.734375 -9.578125 L 21.734375 -1.046875 C 21.734375 -0.742188 21.640625 -0.492188 21.453125 -0.296875 C 21.265625 -0.0976562 21.003906 0 20.671875 0 C 20.367188 0 20.117188 -0.0976562 19.921875 -0.296875 C 19.722656 -0.492188 19.625 -0.742188 19.625 -1.046875 L 19.625 -3.796875 C 18.851562 -2.554688 17.796875 -1.578125 16.453125 -0.859375 C 15.109375 -0.148438 13.601562 0.203125 11.9375 0.203125 C 10.082031 0.203125 8.40625 -0.222656 6.90625 -1.078125 C 5.414062 -1.929688 4.242188 -3.101562 3.390625 -4.59375 C 2.535156 -6.09375 2.109375 -7.753906 2.109375 -9.578125 C 2.109375 -11.429688 2.535156 -13.109375 3.390625 -14.609375 C 4.242188 -16.109375 5.414062 -17.285156 6.90625 -18.140625 C 8.40625 -18.992188 10.082031 -19.421875 11.9375 -19.421875 Z M 11.9375 -1.75 C 13.382812 -1.75 14.691406 -2.085938 15.859375 -2.765625 C 17.035156 -3.453125 17.957031 -4.390625 18.625 -5.578125 C 19.289062 -6.773438 19.625 -8.109375 19.625 -9.578125 C 19.625 -11.054688 19.289062 -12.390625 18.625 -13.578125 C 17.957031 -14.773438 17.035156 -15.71875 15.859375 -16.40625 C 14.691406 -17.101562 13.382812 -17.453125 11.9375 -17.453125 C 10.488281 -17.453125 9.175781 -17.101562 8 -16.40625 C 6.832031 -15.71875 5.910156 -14.773438 5.234375 -13.578125 C 4.554688 -12.390625 4.21875 -11.054688 4.21875 -9.578125 C 4.21875 -8.109375 4.554688 -6.773438 5.234375 -5.578125 C 5.910156 -4.390625 6.832031 -3.453125 8 -2.765625 C 9.175781 -2.085938 10.488281 -1.75 11.9375 -1.75 Z M 11.9375 -1.75 "/></g></g></g><g fill="#113230" fill-opacity="1"><g transform="translate(73.049229, 61.25594)"><g><path d="M 18.25 -19.171875 C 18.65625 -18.984375 18.859375 -18.675781 18.859375 -18.25 C 18.859375 -18.09375 18.832031 -17.96875 18.78125 -17.875 L 10.890625 -0.703125 C 10.648438 -0.210938 10.273438 0.03125 9.765625 0.03125 C 9.546875 0.03125 9.347656 -0.03125 9.171875 -0.15625 C 9.003906 -0.28125 8.875 -0.460938 8.78125 -0.703125 L 0.765625 -17.828125 C 0.722656 -17.921875 0.703125 -18.050781 0.703125 -18.21875 C 0.703125 -18.644531 0.898438 -18.953125 1.296875 -19.140625 C 1.441406 -19.203125 1.582031 -19.234375 1.71875 -19.234375 C 2.113281 -19.234375 2.40625 -19.035156 2.59375 -18.640625 L 9.796875 -3.046875 L 16.890625 -18.671875 C 17.078125 -19.078125 17.378906 -19.28125 17.796875 -19.28125 C 17.960938 -19.28125 18.113281 -19.242188 18.25 -19.171875 Z M 18.25 -19.171875 "/></g></g></g><g fill="#113230" fill-opacity="1"><g transform="translate(92.602539, 61.25594)"><g><path d="M 11.125 -19.375 C 12.832031 -19.375 14.359375 -18.96875 15.703125 -18.15625 C 17.054688 -17.351562 18.109375 -16.238281 18.859375 -14.8125 C 19.609375 -13.382812 19.984375 -11.757812 19.984375 -9.9375 C 19.984375 -9.632812 19.890625 -9.394531 19.703125 -9.21875 C 19.515625 -9.039062 19.265625 -8.953125 18.953125 -8.953125 L 4.25 -8.953125 C 4.320312 -7.566406 4.679688 -6.328125 5.328125 -5.234375 C 5.984375 -4.148438 6.863281 -3.304688 7.96875 -2.703125 C 9.070312 -2.097656 10.300781 -1.796875 11.65625 -1.796875 C 12.570312 -1.796875 13.488281 -1.953125 14.40625 -2.265625 C 15.332031 -2.578125 16.066406 -2.992188 16.609375 -3.515625 C 16.835938 -3.703125 17.082031 -3.796875 17.34375 -3.796875 C 17.601562 -3.796875 17.8125 -3.722656 17.96875 -3.578125 C 18.226562 -3.367188 18.359375 -3.125 18.359375 -2.84375 C 18.359375 -2.613281 18.253906 -2.390625 18.046875 -2.171875 C 17.296875 -1.492188 16.316406 -0.929688 15.109375 -0.484375 C 13.910156 -0.046875 12.757812 0.171875 11.65625 0.171875 C 9.800781 0.171875 8.15625 -0.238281 6.71875 -1.0625 C 5.28125 -1.894531 4.148438 -3.054688 3.328125 -4.546875 C 2.515625 -6.035156 2.109375 -7.710938 2.109375 -9.578125 C 2.109375 -11.472656 2.488281 -13.164062 3.25 -14.65625 C 4.007812 -16.144531 5.070312 -17.300781 6.4375 -18.125 C 7.8125 -18.957031 9.375 -19.375 11.125 -19.375 Z M 11.125 -17.421875 C 9.300781 -17.421875 7.765625 -16.8125 6.515625 -15.59375 C 5.265625 -14.375 4.519531 -12.769531 4.28125 -10.78125 L 17.9375 -10.78125 C 17.769531 -12.769531 17.066406 -14.375 15.828125 -15.59375 C 14.585938 -16.8125 13.019531 -17.421875 11.125 -17.421875 Z M 11.125 -17.421875 "/></g></g></g><g fill="#113230" fill-opacity="1"><g transform="translate(113.981289, 61.25594)"><g/></g></g><g fill="#113230" fill-opacity="1"><g transform="translate(124.266962, 61.25594)"><g><path d="M 15.828125 0.34375 C 13.367188 0.34375 11.085938 -0.289062 8.984375 -1.5625 C 6.878906 -2.832031 5.207031 -4.550781 3.96875 -6.71875 C 2.726562 -8.882812 2.109375 -11.222656 2.109375 -13.734375 C 2.109375 -16.234375 2.722656 -18.554688 3.953125 -20.703125 C 5.179688 -22.859375 6.84375 -24.570312 8.9375 -25.84375 C 11.03125 -27.125 13.328125 -27.765625 15.828125 -27.765625 C 19.109375 -27.765625 22 -26.722656 24.5 -24.640625 C 24.71875 -24.484375 24.828125 -24.25 24.828125 -23.9375 C 24.828125 -23.65625 24.734375 -23.40625 24.546875 -23.1875 C 24.359375 -22.96875 24.097656 -22.859375 23.765625 -22.859375 C 23.503906 -22.859375 23.210938 -23 22.890625 -23.28125 C 21.109375 -24.875 18.753906 -25.671875 15.828125 -25.671875 C 13.773438 -25.671875 11.851562 -25.117188 10.0625 -24.015625 C 8.269531 -22.910156 6.847656 -21.441406 5.796875 -19.609375 C 4.742188 -17.773438 4.21875 -15.816406 4.21875 -13.734375 C 4.21875 -11.578125 4.738281 -9.578125 5.78125 -7.734375 C 6.820312 -5.898438 8.234375 -4.441406 10.015625 -3.359375 C 11.804688 -2.285156 13.742188 -1.75 15.828125 -1.75 C 18.597656 -1.75 21.023438 -2.601562 23.109375 -4.3125 C 23.265625 -4.4375 23.4375 -4.5 23.625 -4.5 C 23.90625 -4.5 24.15625 -4.390625 24.375 -4.171875 C 24.601562 -3.960938 24.71875 -3.707031 24.71875 -3.40625 C 24.71875 -3.101562 24.632812 -2.859375 24.46875 -2.671875 C 22.457031 -0.660156 19.578125 0.34375 15.828125 0.34375 Z M 15.828125 0.34375 "/></g></g></g><g fill="#113230" fill-opacity="1"><g transform="translate(151.192258, 61.25594)"><g><path d="M 11.3125 -19.421875 C 13.082031 -19.421875 13.96875 -19.03125 13.96875 -18.25 C 13.96875 -18.132812 13.957031 -18.039062 13.9375 -17.96875 C 13.863281 -17.71875 13.75 -17.539062 13.59375 -17.4375 C 13.445312 -17.332031 13.242188 -17.28125 12.984375 -17.28125 C 12.773438 -17.28125 12.5 -17.300781 12.15625 -17.34375 C 11.820312 -17.394531 11.539062 -17.421875 11.3125 -17.421875 C 10.132812 -17.421875 9.085938 -17.171875 8.171875 -16.671875 C 7.265625 -16.179688 6.550781 -15.503906 6.03125 -14.640625 C 5.519531 -13.773438 5.265625 -12.800781 5.265625 -11.71875 L 5.265625 -1.046875 C 5.265625 -0.742188 5.171875 -0.492188 4.984375 -0.296875 C 4.796875 -0.0976562 4.539062 0 4.21875 0 C 3.90625 0 3.648438 -0.0976562 3.453125 -0.296875 C 3.253906 -0.492188 3.15625 -0.742188 3.15625 -1.046875 L 3.15625 -18.15625 C 3.15625 -18.476562 3.253906 -18.734375 3.453125 -18.921875 C 3.648438 -19.109375 3.90625 -19.203125 4.21875 -19.203125 C 4.539062 -19.203125 4.796875 -19.109375 4.984375 -18.921875 C 5.171875 -18.734375 5.265625 -18.476562 5.265625 -18.15625 L 5.265625 -15.96875 C 5.941406 -17.050781 6.804688 -17.894531 7.859375 -18.5 C 8.910156 -19.113281 10.0625 -19.421875 11.3125 -19.421875 Z M 11.3125 -19.421875 "/></g></g></g><g fill="#113230" fill-opacity="1"><g transform="translate(166.568106, 61.25594)"><g><path d="M 11.125 -19.375 C 12.832031 -19.375 14.359375 -18.96875 15.703125 -18.15625 C 17.054688 -17.351562 18.109375 -16.238281 18.859375 -14.8125 C 19.609375 -13.382812 19.984375 -11.757812 19.984375 -9.9375 C 19.984375 -9.632812 19.890625 -9.394531 19.703125 -9.21875 C 19.515625 -9.039062 19.265625 -8.953125 18.953125 -8.953125 L 4.25 -8.953125 C 4.320312 -7.566406 4.679688 -6.328125 5.328125 -5.234375 C 5.984375 -4.148438 6.863281 -3.304688 7.96875 -2.703125 C 9.070312 -2.097656 10.300781 -1.796875 11.65625 -1.796875 C 12.570312 -1.796875 13.488281 -1.953125 14.40625 -2.265625 C 15.332031 -2.578125 16.066406 -2.992188 16.609375 -3.515625 C 16.835938 -3.703125 17.082031 -3.796875 17.34375 -3.796875 C 17.601562 -3.796875 17.8125 -3.722656 17.96875 -3.578125 C 18.226562 -3.367188 18.359375 -3.125 18.359375 -2.84375 C 18.359375 -2.613281 18.253906 -2.390625 18.046875 -2.171875 C 17.296875 -1.492188 16.316406 -0.929688 15.109375 -0.484375 C 13.910156 -0.046875 12.757812 0.171875 11.65625 0.171875 C 9.800781 0.171875 8.15625 -0.238281 6.71875 -1.0625 C 5.28125 -1.894531 4.148438 -3.054688 3.328125 -4.546875 C 2.515625 -6.035156 2.109375 -7.710938 2.109375 -9.578125 C 2.109375 -11.472656 2.488281 -13.164062 3.25 -14.65625 C 4.007812 -16.144531 5.070312 -17.300781 6.4375 -18.125 C 7.8125 -18.957031 9.375 -19.375 11.125 -19.375 Z M 11.125 -17.421875 C 9.300781 -17.421875 7.765625 -16.8125 6.515625 -15.59375 C 5.265625 -14.375 4.519531 -12.769531 4.28125 -10.78125 L 17.9375 -10.78125 C 17.769531 -12.769531 17.066406 -14.375 15.828125 -15.59375 C 14.585938 -16.8125 13.019531 -17.421875 11.125 -17.421875 Z M 11.125 -17.421875 "/></g></g></g><g fill="#113230" fill-opacity="1"><g transform="translate(187.946857, 61.25594)"><g><path d="M 11.9375 -19.421875 C 13.757812 -19.421875 15.421875 -18.992188 16.921875 -18.140625 C 18.421875 -17.285156 19.597656 -16.109375 20.453125 -14.609375 C 21.304688 -13.109375 21.734375 -11.429688 21.734375 -9.578125 L 21.734375 -1.046875 C 21.734375 -0.742188 21.640625 -0.492188 21.453125 -0.296875 C 21.265625 -0.0976562 21.003906 0 20.671875 0 C 20.367188 0 20.117188 -0.0976562 19.921875 -0.296875 C 19.722656 -0.492188 19.625 -0.742188 19.625 -1.046875 L 19.625 -3.796875 C 18.851562 -2.554688 17.796875 -1.578125 16.453125 -0.859375 C 15.109375 -0.148438 13.601562 0.203125 11.9375 0.203125 C 10.082031 0.203125 8.40625 -0.222656 6.90625 -1.078125 C 5.414062 -1.929688 4.242188 -3.101562 3.390625 -4.59375 C 2.535156 -6.09375 2.109375 -7.753906 2.109375 -9.578125 C 2.109375 -11.429688 2.535156 -13.109375 3.390625 -14.609375 C 4.242188 -16.109375 5.414062 -17.285156 6.90625 -18.140625 C 8.40625 -18.992188 10.082031 -19.421875 11.9375 -19.421875 Z M 11.9375 -1.75 C 13.382812 -1.75 14.691406 -2.085938 15.859375 -2.765625 C 17.035156 -3.453125 17.957031 -4.390625 18.625 -5.578125 C 19.289062 -6.773438 19.625 -8.109375 19.625 -9.578125 C 19.625 -11.054688 19.289062 -12.390625 18.625 -13.578125 C 17.957031 -14.773438 17.035156 -15.71875 15.859375 -16.40625 C 14.691406 -17.101562 13.382812 -17.453125 11.9375 -17.453125 C 10.488281 -17.453125 9.175781 -17.101562 8 -16.40625 C 6.832031 -15.71875 5.910156 -14.773438 5.234375 -13.578125 C 4.554688 -12.390625 4.21875 -11.054688 4.21875 -9.578125 C 4.21875 -8.109375 4.554688 -6.773438 5.234375 -5.578125 C 5.910156 -4.390625 6.832031 -3.453125 8 -2.765625 C 9.175781 -2.085938 10.488281 -1.75 11.9375 -1.75 Z M 11.9375 -1.75 "/></g></g></g><g fill="#113230" fill-opacity="1"><g transform="translate(211.782937, 61.25594)"><g><path d="M 11.9375 -19.453125 C 13.644531 -19.453125 15.171875 -19.097656 16.515625 -18.390625 C 17.859375 -17.691406 18.910156 -16.671875 19.671875 -15.328125 C 20.429688 -13.984375 20.8125 -12.375 20.8125 -10.5 L 20.8125 -1.046875 C 20.8125 -0.742188 20.710938 -0.492188 20.515625 -0.296875 C 20.316406 -0.0976562 20.066406 0 19.765625 0 C 19.460938 0 19.210938 -0.0976562 19.015625 -0.296875 C 18.816406 -0.492188 18.71875 -0.742188 18.71875 -1.046875 L 18.71875 -10.5 C 18.71875 -12.71875 18.085938 -14.410156 16.828125 -15.578125 C 15.578125 -16.753906 13.945312 -17.34375 11.9375 -17.34375 C 10.695312 -17.34375 9.566406 -17.101562 8.546875 -16.625 C 7.523438 -16.144531 6.722656 -15.476562 6.140625 -14.625 C 5.554688 -13.769531 5.265625 -12.828125 5.265625 -11.796875 L 5.265625 -1.046875 C 5.265625 -0.742188 5.171875 -0.492188 4.984375 -0.296875 C 4.796875 -0.0976562 4.539062 0 4.21875 0 C 3.90625 0 3.648438 -0.0976562 3.453125 -0.296875 C 3.253906 -0.492188 3.15625 -0.742188 3.15625 -1.046875 L 3.15625 -18.15625 C 3.15625 -18.476562 3.253906 -18.734375 3.453125 -18.921875 C 3.648438 -19.109375 3.90625 -19.203125 4.21875 -19.203125 C 4.539062 -19.203125 4.796875 -19.109375 4.984375 -18.921875 C 5.171875 -18.734375 5.265625 -18.476562 5.265625 -18.15625 L 5.265625 -16.328125 C 6.054688 -17.304688 7.023438 -18.070312 8.171875 -18.625 C 9.328125 -19.175781 10.582031 -19.453125 11.9375 -19.453125 Z M 11.9375 -19.453125 "/></g></g></g></svg>